<svg width="420" height="173" viewBox="0 0 420 173" fill="none" xmlns="http://www.w3.org/2000/svg">
<g filter="url(#filter0_d)">
<path d="M144.681 135.273L145.875 135.509V134.292V107.881V106.656L144.674 106.901L107.924 114.429L107.125 114.593V115.409V148.789C107.114 157.67 100.449 162 94.2947 162C91.7088 162 89.2816 161.225 87.5197 159.755C85.7805 158.303 84.625 156.122 84.625 153.139C84.625 150.12 86.2713 147.125 88.957 144.854C91.6362 142.589 95.2665 141.123 99.0477 141.123C99.9652 141.123 100.892 141.209 101.818 141.392L103.012 141.628V140.411V101.277L150 90.7488V142.676C149.989 151.557 143.378 155.875 137.28 155.875C134.704 155.875 132.246 155.098 130.452 153.617C128.682 152.156 127.5 149.965 127.5 146.977C127.5 143.965 129.145 140.981 131.829 138.72C134.505 136.463 138.131 135.004 141.904 135.004C142.828 135.004 143.755 135.09 144.681 135.273ZM58.6237 116.742C49.1575 113.122 41.6395 105.604 38.014 96.1373L42.2875 95.6037C45.4916 103.203 51.554 109.265 59.1532 112.469L58.6237 116.742ZM57.0604 129.161C42.0794 124.478 30.2718 112.671 25.5889 97.6896L29.719 97.1733C34.0788 110.289 44.4672 120.671 57.5767 125.031L57.0604 129.161ZM84.1263 50.0083C93.5926 53.6341 101.111 61.1523 104.736 70.6188L100.463 71.1524C97.2586 63.5477 91.1962 57.4851 83.5968 54.2811L84.1263 50.0083ZM71.375 139.5C72.5581 139.5 73.7333 139.461 74.8975 139.388C72.7121 142.556 71.3288 146.087 70.7836 149.747C34.3988 149.43 5 119.835 5 83.375C5 46.7179 34.7179 17 71.375 17C106.532 17 135.226 44.3575 137.517 78.9469L127.417 81.209C126.27 51.269 101.598 27.25 71.375 27.25C40.4243 27.25 15.25 52.4305 15.25 83.375C15.25 114.319 40.4243 139.5 71.375 139.5ZM85.6835 37.5882C100.676 42.2656 112.484 54.0788 117.156 69.0603L113.025 69.5767C108.671 56.4612 98.2827 46.0728 85.1672 41.7187L85.6835 37.5882ZM71.375 100.75C61.7782 100.75 54 92.9718 54 83.375C54 73.7782 61.7782 66 71.375 66C80.9718 66 88.75 73.7782 88.75 83.375C88.75 92.9718 80.9718 100.75 71.375 100.75ZM71.375 96.625C78.6832 96.625 84.625 90.6832 84.625 83.375C84.625 76.0668 78.6832 70.125 71.375 70.125C64.0668 70.125 58.125 76.0668 58.125 83.375C58.125 90.6832 64.0668 96.625 71.375 96.625Z" fill="#0489B3"/>
<path d="M144.681 135.273L145.875 135.509V134.292V107.881V106.656L144.674 106.901L107.924 114.429L107.125 114.593V115.409V148.789C107.114 157.67 100.449 162 94.2947 162C91.7088 162 89.2816 161.225 87.5197 159.755C85.7805 158.303 84.625 156.122 84.625 153.139C84.625 150.12 86.2713 147.125 88.957 144.854C91.6362 142.589 95.2665 141.123 99.0477 141.123C99.9652 141.123 100.892 141.209 101.818 141.392L103.012 141.628V140.411V101.277L150 90.7488V142.676C149.989 151.557 143.378 155.875 137.28 155.875C134.704 155.875 132.246 155.098 130.452 153.617C128.682 152.156 127.5 149.965 127.5 146.977C127.5 143.965 129.145 140.981 131.829 138.72C134.505 136.463 138.131 135.004 141.904 135.004C142.828 135.004 143.755 135.09 144.681 135.273ZM58.6237 116.742C49.1575 113.122 41.6395 105.604 38.014 96.1373L42.2875 95.6037C45.4916 103.203 51.554 109.265 59.1532 112.469L58.6237 116.742ZM57.0604 129.161C42.0794 124.478 30.2718 112.671 25.5889 97.6896L29.719 97.1733C34.0788 110.289 44.4672 120.671 57.5767 125.031L57.0604 129.161ZM84.1263 50.0083C93.5926 53.6341 101.111 61.1523 104.736 70.6188L100.463 71.1524C97.2586 63.5477 91.1962 57.4851 83.5968 54.2811L84.1263 50.0083ZM71.375 139.5C72.5581 139.5 73.7333 139.461 74.8975 139.388C72.7121 142.556 71.3288 146.087 70.7836 149.747C34.3988 149.43 5 119.835 5 83.375C5 46.7179 34.7179 17 71.375 17C106.532 17 135.226 44.3575 137.517 78.9469L127.417 81.209C126.27 51.269 101.598 27.25 71.375 27.25C40.4243 27.25 15.25 52.4305 15.25 83.375C15.25 114.319 40.4243 139.5 71.375 139.5ZM85.6835 37.5882C100.676 42.2656 112.484 54.0788 117.156 69.0603L113.025 69.5767C108.671 56.4612 98.2827 46.0728 85.1672 41.7187L85.6835 37.5882ZM71.375 100.75C61.7782 100.75 54 92.9718 54 83.375C54 73.7782 61.7782 66 71.375 66C80.9718 66 88.75 73.7782 88.75 83.375C88.75 92.9718 80.9718 100.75 71.375 100.75ZM71.375 96.625C78.6832 96.625 84.625 90.6832 84.625 83.375C84.625 76.0668 78.6832 70.125 71.375 70.125C64.0668 70.125 58.125 76.0668 58.125 83.375C58.125 90.6832 64.0668 96.625 71.375 96.625Z" fill="url(#paint0_linear)"/>
<path d="M144.681 135.273L145.875 135.509V134.292V107.881V106.656L144.674 106.901L107.924 114.429L107.125 114.593V115.409V148.789C107.114 157.67 100.449 162 94.2947 162C91.7088 162 89.2816 161.225 87.5197 159.755C85.7805 158.303 84.625 156.122 84.625 153.139C84.625 150.12 86.2713 147.125 88.957 144.854C91.6362 142.589 95.2665 141.123 99.0477 141.123C99.9652 141.123 100.892 141.209 101.818 141.392L103.012 141.628V140.411V101.277L150 90.7488V142.676C149.989 151.557 143.378 155.875 137.28 155.875C134.704 155.875 132.246 155.098 130.452 153.617C128.682 152.156 127.5 149.965 127.5 146.977C127.5 143.965 129.145 140.981 131.829 138.72C134.505 136.463 138.131 135.004 141.904 135.004C142.828 135.004 143.755 135.09 144.681 135.273ZM58.6237 116.742C49.1575 113.122 41.6395 105.604 38.014 96.1373L42.2875 95.6037C45.4916 103.203 51.554 109.265 59.1532 112.469L58.6237 116.742ZM57.0604 129.161C42.0794 124.478 30.2718 112.671 25.5889 97.6896L29.719 97.1733C34.0788 110.289 44.4672 120.671 57.5767 125.031L57.0604 129.161ZM84.1263 50.0083C93.5926 53.6341 101.111 61.1523 104.736 70.6188L100.463 71.1524C97.2586 63.5477 91.1962 57.4851 83.5968 54.2811L84.1263 50.0083ZM71.375 139.5C72.5581 139.5 73.7333 139.461 74.8975 139.388C72.7121 142.556 71.3288 146.087 70.7836 149.747C34.3988 149.43 5 119.835 5 83.375C5 46.7179 34.7179 17 71.375 17C106.532 17 135.226 44.3575 137.517 78.9469L127.417 81.209C126.27 51.269 101.598 27.25 71.375 27.25C40.4243 27.25 15.25 52.4305 15.25 83.375C15.25 114.319 40.4243 139.5 71.375 139.5ZM85.6835 37.5882C100.676 42.2656 112.484 54.0788 117.156 69.0603L113.025 69.5767C108.671 56.4612 98.2827 46.0728 85.1672 41.7187L85.6835 37.5882ZM71.375 100.75C61.7782 100.75 54 92.9718 54 83.375C54 73.7782 61.7782 66 71.375 66C80.9718 66 88.75 73.7782 88.75 83.375C88.75 92.9718 80.9718 100.75 71.375 100.75ZM71.375 96.625C78.6832 96.625 84.625 90.6832 84.625 83.375C84.625 76.0668 78.6832 70.125 71.375 70.125C64.0668 70.125 58.125 76.0668 58.125 83.375C58.125 90.6832 64.0668 96.625 71.375 96.625Z" stroke="#0085FF" stroke-width="2"/>
</g>
<g filter="url(#filter1_di)">
<path d="M251.128 86.936C252.792 86.936 254.392 86.04 255.928 84.248L257.368 85.4C257.176 85.656 256.92 85.976 256.6 86.36C256.28 86.744 255.48 87.256 254.2 87.896C252.984 88.536 251.64 88.856 250.168 88.856C243 88.856 239.416 85.752 239.416 79.544C239.416 77.624 239.64 74.776 240.088 71C237.016 71.96 234.264 72.44 231.832 72.44C227.544 72.44 223.256 71.128 218.968 68.504C216.472 72.792 214.136 76.472 211.96 79.544C209.784 82.552 207.256 85.496 204.376 88.376C198.424 94.2 191.224 97.112 182.776 97.112C174.392 97.112 167.704 94.424 162.712 89.048C158.296 84.12 156.088 78.136 156.088 71.096C156.088 63.992 158.36 57.688 162.904 52.184C167.448 46.68 173.336 43.928 180.568 43.928C187.8 43.928 193.304 46.072 197.08 50.36C197.976 51.512 198.616 52.376 199 52.952C202.456 54.424 206.392 56.856 210.808 60.248C214.136 62.936 216.6 64.792 218.2 65.816C219.096 64.152 220.312 61.912 221.848 59.096C223.448 56.28 224.664 54.136 225.496 52.664C226.328 51.192 227.576 49.112 229.24 46.424C230.904 43.736 232.248 41.72 233.272 40.376C234.36 38.968 235.768 37.24 237.496 35.192C239.288 33.08 240.92 31.512 242.392 30.488C246.808 27.352 250.52 25.528 253.528 25.016C255.192 24.76 256.6 24.632 257.752 24.632C258.904 24.632 260.184 24.664 261.592 24.728C263 24.728 264.984 25.08 267.544 25.784L267.064 27.608C265.528 27.16 263.896 26.84 262.168 26.648C255.768 51.8 252.088 71.896 251.128 86.936ZM202.072 64.088C202.072 68.824 200.696 73.016 197.944 76.664C195.256 80.312 191.608 82.136 187 82.136C183.992 82.136 181.528 81.24 179.608 79.448C177.752 77.656 176.824 75.8 176.824 73.88C176.824 71.96 177.112 70.392 177.688 69.176C178.264 67.896 178.904 66.936 179.608 66.296C180.376 65.656 181.208 65.144 182.104 64.76C183.32 64.12 184.28 63.8 184.984 63.8L185.176 65.72C183.576 65.72 182.104 66.488 180.76 68.024C179.416 69.56 178.744 71.288 178.744 73.208C178.744 75.128 179.48 76.792 180.952 78.2C182.488 79.544 184.504 80.216 187 80.216C191.096 80.216 194.328 78.616 196.696 75.416C199.064 72.216 200.248 68.664 200.248 64.76C200.248 60.856 199.448 57.464 197.848 54.584C194.328 53.24 190.84 52.568 187.384 52.568C180.728 52.568 176.024 55.672 173.272 61.88L171.448 61.304C172.152 59.704 173.272 57.976 174.808 56.12C177.816 52.472 182.008 50.648 187.384 50.648C190.264 50.648 193.112 51.064 195.928 51.896L195.736 51.608C192.216 47.768 187.128 45.848 180.472 45.848C173.88 45.848 168.472 48.408 164.248 53.528C160.088 58.648 158.008 64.536 158.008 71.192C158.008 77.784 160.056 83.288 164.152 87.704C168.76 92.696 175.192 95.192 183.448 95.192C191 95.192 197.592 92.344 203.224 86.648C206.04 83.896 208.472 81.048 210.52 78.104C212.632 75.16 214.904 71.608 217.336 67.448C215.16 66.04 212.504 64.12 209.368 61.688C206.296 59.192 203.32 57.208 200.44 55.736C201.528 58.424 202.072 61.208 202.072 64.088ZM219.928 66.872C224.024 69.304 227.768 70.52 231.16 70.52C234.616 70.52 237.688 69.976 240.376 68.888C241.912 58.072 244.792 44.632 249.016 28.568C243.896 31 239.192 35.32 234.904 41.528C231.768 46.008 227.992 52.248 223.576 60.248L219.928 66.872ZM275.376 81.368C281.712 81.368 284.88 76.696 284.88 67.352C284.88 65.048 284.528 62.328 283.824 59.192C283.184 56.056 282.8 54.104 282.672 53.336C278.768 57.368 274.384 59.8 269.52 60.632V58.328C274.128 57.304 278.448 54.68 282.48 50.456V50.072C282.48 48.536 282.704 47.032 283.152 45.56C283.6 44.088 284.048 43 284.496 42.296L285.168 41.24H287.472C287.472 44.056 287.92 46.648 288.816 49.016C289.712 51.32 290.704 53.208 291.792 54.68C292.88 56.088 293.872 57.976 294.768 60.344C295.664 62.648 296.112 65.208 296.112 68.024C296.112 72.568 294.384 76.344 290.928 79.352C287.536 82.36 283.44 83.864 278.64 83.864C273.84 83.864 270.192 82.776 267.696 80.6C265.264 78.424 264.048 75.928 264.048 73.112C264.048 70.232 264.752 68.184 266.16 66.968C267.568 65.688 269.232 65.048 271.152 65.048C273.072 65.048 274.64 65.688 275.856 66.968C277.136 68.184 277.776 69.784 277.776 71.768C277.776 73.688 277.168 75.32 275.952 76.664C274.736 78.008 273.168 78.68 271.248 78.68C270.416 78.68 269.552 78.552 268.656 78.296C270.064 80.344 272.304 81.368 275.376 81.368ZM337.695 81.944C339.231 81.944 340.831 81.048 342.495 79.256L343.935 80.408C343.487 81.304 342.495 82.104 340.959 82.808C339.423 83.512 337.727 83.864 335.871 83.864C330.047 83.864 327.135 81.24 327.135 75.992C327.135 73.752 327.711 69.752 328.863 63.992C330.015 58.232 330.591 54.456 330.591 52.664C330.591 49.912 329.279 48.536 326.655 48.536C324.479 48.536 322.367 50.008 320.319 52.952C318.335 55.896 316.703 59.896 315.423 64.952L312.255 83H300.735L311.391 22.712C309.471 22.904 307.871 23.8 306.591 25.4L305.151 24.248C307.071 21.944 309.471 20.792 312.351 20.792C315.295 20.792 317.567 21.528 319.167 23C320.767 24.472 321.567 26.552 321.567 29.24C321.567 29.752 321.503 30.584 321.375 31.736L317.343 54.488C319.967 48.6 324.031 45.656 329.535 45.656C333.311 45.656 336.255 46.744 338.367 48.92C340.479 51.032 341.535 53.976 341.535 57.752C341.535 59.736 340.927 63.576 339.711 69.272C338.495 74.904 337.823 79.128 337.695 81.944ZM366.237 80.408C364.317 82.712 361.917 83.864 359.037 83.864C356.157 83.864 353.885 83.128 352.221 81.656C350.621 80.184 349.821 78.264 349.821 75.896C349.821 75.064 350.333 71.576 351.357 65.432L354.525 48.248H350.493L350.685 46.52H354.812C359.549 46.52 363.037 46.328 365.277 45.944L366.621 45.656L359.997 81.944C361.917 81.752 363.517 80.856 364.797 79.256L366.237 80.408ZM357.789 36.44C356.445 35.096 355.773 33.464 355.773 31.544C355.773 29.624 356.445 27.992 357.789 26.648C359.133 25.24 360.765 24.536 362.685 24.536C364.605 24.536 366.237 25.24 367.581 26.648C368.989 27.992 369.693 29.624 369.693 31.544C369.693 33.464 368.989 35.096 367.581 36.44C366.237 37.784 364.605 38.456 362.685 38.456C360.765 38.456 359.133 37.784 357.789 36.44ZM385.551 64.472L382.095 83H370.671L381.519 22.712C379.599 22.904 377.999 23.8 376.719 25.4L375.279 24.248C377.199 21.944 379.599 20.792 382.479 20.792C385.423 20.792 387.695 21.528 389.295 23C390.895 24.472 391.695 26.552 391.695 29.24C391.695 29.752 391.631 30.584 391.503 31.736C390.031 39.864 388.431 48.632 386.703 58.04C388.303 54.136 390.607 51.096 393.615 48.92C396.623 46.744 399.823 45.656 403.215 45.656C406.607 45.656 408.975 46.328 410.319 47.672C411.727 49.016 412.431 50.712 412.431 52.76C412.431 54.744 411.823 56.376 410.607 57.656C409.391 58.936 407.791 59.576 405.807 59.576C403.887 59.576 402.383 59.032 401.295 57.944C400.271 56.792 399.759 55.128 399.759 52.952C399.759 50.712 400.527 49.016 402.063 47.864C395.919 48.568 391.023 53.112 387.375 61.496C388.271 61.368 389.039 61.304 389.679 61.304C393.071 61.304 395.727 61.976 397.647 63.32C399.631 64.664 400.911 66.328 401.487 68.312C402.063 70.232 402.479 72.184 402.735 74.168C402.991 76.088 403.407 77.72 403.983 79.064C404.559 80.408 405.583 81.08 407.055 81.08C408.527 81.08 409.679 80.472 410.511 79.256L411.951 80.408C411.503 81.304 410.511 82.104 408.975 82.808C407.439 83.512 405.455 83.864 403.023 83.864C400.655 83.864 398.543 83.256 396.687 82.04C394.895 80.824 393.647 79.32 392.943 77.528C392.239 75.672 391.663 73.848 391.215 72.056C389.999 67.448 388.111 64.92 385.551 64.472Z" fill="#51FFF5"/>
<path d="M251.128 86.936L248.134 86.7449L247.93 89.936H251.128V86.936ZM255.928 84.248L257.802 81.9054L255.538 80.0938L253.65 82.2956L255.928 84.248ZM257.368 85.4L259.768 87.2L261.513 84.8738L259.242 83.0574L257.368 85.4ZM256.6 86.36L254.295 84.4394L256.6 86.36ZM254.2 87.896L252.858 85.2127L252.83 85.2267L252.803 85.2412L254.2 87.896ZM240.088 71L243.067 71.3535L243.613 66.7555L239.193 68.1366L240.088 71ZM218.968 68.504L220.534 65.9451L217.918 64.3444L216.375 66.9948L218.968 68.504ZM211.96 79.544L214.391 81.3024L214.399 81.2902L214.408 81.2781L211.96 79.544ZM204.376 88.376L206.474 90.5203L206.486 90.5088L206.497 90.4973L204.376 88.376ZM162.712 89.048L160.478 91.0501L160.496 91.0699L160.514 91.0894L162.712 89.048ZM197.08 50.36L199.448 48.5182L199.392 48.446L199.331 48.3774L197.08 50.36ZM199 52.952L196.504 54.6161L197.001 55.3612L197.824 55.7121L199 52.952ZM210.808 60.248L212.693 57.9142L212.665 57.8912L212.635 57.8688L210.808 60.248ZM218.2 65.816L216.583 68.3428L219.308 70.0867L220.841 67.2383L218.2 65.816ZM221.848 59.096L219.24 57.614L219.227 57.6366L219.214 57.6594L221.848 59.096ZM229.24 46.424L231.791 48.0031L229.24 46.424ZM233.272 40.376L230.898 38.5417L230.892 38.5497L230.886 38.5579L233.272 40.376ZM237.496 35.192L235.208 33.2511L235.203 33.2574L237.496 35.192ZM242.392 30.488L244.105 32.9507L244.117 32.9424L244.129 32.934L242.392 30.488ZM253.528 25.016L253.072 22.0509L253.048 22.0545L253.025 22.0585L253.528 25.016ZM261.592 24.728L261.456 27.7249L261.524 27.728H261.592V24.728ZM267.544 25.784L270.445 26.5475L271.2 23.6781L268.339 22.8914L267.544 25.784ZM267.064 27.608L266.224 30.488L269.181 31.3505L269.965 28.3715L267.064 27.608ZM262.168 26.648L262.499 23.6663L259.904 23.378L259.261 25.9082L262.168 26.648ZM197.944 76.664L195.549 74.8573L195.539 74.8708L195.529 74.8844L197.944 76.664ZM179.608 79.448L177.524 81.6062L177.542 81.6238L177.561 81.6412L179.608 79.448ZM177.688 69.176L180.399 70.4603L180.412 70.4338L180.424 70.4071L177.688 69.176ZM179.608 66.296L177.687 63.9913L177.638 64.0327L177.59 64.0762L179.608 66.296ZM182.104 64.76L183.286 67.5174L183.396 67.4704L183.501 67.4148L182.104 64.76ZM184.984 63.8L187.969 63.5015L187.699 60.8H184.984V63.8ZM185.176 65.72V68.72H188.491L188.161 65.4215L185.176 65.72ZM180.76 68.024L178.502 66.0485L180.76 68.024ZM180.952 78.2L178.878 80.3679L178.926 80.4139L178.976 80.4577L180.952 78.2ZM196.696 75.416L199.108 77.2005L196.696 75.416ZM197.848 54.584L200.47 53.1271L199.94 52.1713L198.918 51.7813L197.848 54.584ZM173.272 61.88L172.369 64.7407L174.927 65.5487L176.015 63.0958L173.272 61.88ZM171.448 61.304L168.702 60.0958L167.355 63.1575L170.545 64.1647L171.448 61.304ZM174.808 56.12L177.119 58.0327L177.123 58.0285L174.808 56.12ZM195.928 51.896L195.078 54.7731L203.015 57.1181L198.424 50.2319L195.928 51.896ZM195.736 51.608L198.232 49.9439L198.104 49.7514L197.947 49.5808L195.736 51.608ZM164.248 53.528L161.934 51.6189L161.927 51.6275L161.92 51.6362L164.248 53.528ZM164.152 87.704L166.356 85.6692L166.352 85.6639L164.152 87.704ZM203.224 86.648L201.127 84.5024L201.109 84.5204L201.091 84.5387L203.224 86.648ZM210.52 78.104L208.082 76.3553L208.07 76.3729L208.057 76.3908L210.52 78.104ZM217.336 67.448L219.926 68.9621L221.373 66.4869L218.966 64.9293L217.336 67.448ZM209.368 61.688L207.476 64.0163L207.503 64.0378L207.53 64.0587L209.368 61.688ZM200.44 55.736L201.805 53.0647L194.64 49.4024L197.659 56.8616L200.44 55.736ZM219.928 66.872L217.3 65.4248L215.899 67.9688L218.396 69.4516L219.928 66.872ZM240.376 68.888L241.502 71.6688L243.103 71.0205L243.346 69.3098L240.376 68.888ZM249.016 28.568L251.917 29.3309L253.559 23.089L247.729 25.8582L249.016 28.568ZM234.904 41.528L237.362 43.2484L237.367 43.2407L237.372 43.233L234.904 41.528ZM223.576 60.248L220.95 58.7982L220.948 58.8008L223.576 60.248ZM251.128 89.936C253.987 89.936 256.347 88.3693 258.206 86.2004L253.65 82.2956C252.437 83.7107 251.597 83.936 251.128 83.936V89.936ZM254.054 86.5906L255.494 87.7426L259.242 83.0574L257.802 81.9054L254.054 86.5906ZM254.968 83.6C254.819 83.799 254.599 84.0756 254.295 84.4394L258.905 88.2806C259.241 87.8764 259.533 87.513 259.768 87.2L254.968 83.6ZM254.295 84.4394C254.387 84.3299 254.44 84.2939 254.396 84.3294C254.36 84.3584 254.281 84.417 254.143 84.5052C253.864 84.6835 253.446 84.9189 252.858 85.2127L255.542 90.5793C256.234 90.2331 256.856 89.8925 257.377 89.5588C257.847 89.2579 258.443 88.8346 258.905 88.2806L254.295 84.4394ZM252.803 85.2412C252.048 85.6385 251.189 85.856 250.168 85.856V91.856C252.091 91.856 253.92 91.4335 255.597 90.5508L252.803 85.2412ZM250.168 85.856C246.949 85.856 245.095 85.1498 244.068 84.2603C243.123 83.4422 242.416 82.0642 242.416 79.544H236.416C236.416 83.2318 237.501 86.5098 240.14 88.7957C242.697 91.0102 246.219 91.856 250.168 91.856V85.856ZM242.416 79.544C242.416 77.8072 242.622 75.1022 243.067 71.3535L237.109 70.6465C236.658 74.4498 236.416 77.4408 236.416 79.544H242.416ZM239.193 68.1366C236.323 69.0335 233.881 69.44 231.832 69.44V75.44C234.647 75.44 237.709 74.8865 240.983 73.8634L239.193 68.1366ZM231.832 69.44C228.186 69.44 224.433 68.331 220.534 65.9451L217.402 71.0629C222.079 73.925 226.902 75.44 231.832 75.44V69.44ZM216.375 66.9948C213.911 71.2284 211.623 74.8293 209.512 77.8099L214.408 81.2781C216.649 78.1147 219.033 74.3556 221.561 70.0132L216.375 66.9948ZM209.529 77.7856C207.455 80.6529 205.033 83.4766 202.255 86.2547L206.497 90.4973C209.479 87.5154 212.113 84.4511 214.391 81.3024L209.529 77.7856ZM202.278 86.2317C196.896 91.4984 190.452 94.112 182.776 94.112V100.112C191.996 100.112 199.953 96.9016 206.474 90.5203L202.278 86.2317ZM182.776 94.112C175.095 94.112 169.251 91.6815 164.91 87.0066L160.514 91.0894C166.157 97.1665 173.689 100.112 182.776 100.112V94.112ZM164.946 87.0459C161.057 82.7054 159.088 77.4486 159.088 71.096H153.088C153.088 78.8234 155.535 85.5346 160.478 91.0501L164.946 87.0459ZM159.088 71.096C159.088 64.6927 161.115 59.0632 165.217 54.0939L160.591 50.274C155.605 56.3128 153.088 63.2913 153.088 71.096H159.088ZM165.217 54.0939C169.183 49.2908 174.217 46.928 180.568 46.928V40.928C172.455 40.928 165.713 44.0692 160.591 50.274L165.217 54.0939ZM180.568 46.928C187.184 46.928 191.767 48.8655 194.829 52.3426L199.331 48.3774C194.841 43.2785 188.416 40.928 180.568 40.928V46.928ZM194.712 52.2018C195.601 53.3447 196.184 54.1365 196.504 54.6161L201.496 51.2879C201.048 50.6155 200.351 49.6793 199.448 48.5182L194.712 52.2018ZM197.824 55.7121C200.965 57.0499 204.678 59.3227 208.981 62.6272L212.635 57.8688C208.106 54.3893 203.947 51.7981 200.176 50.1919L197.824 55.7121ZM208.923 62.5818C212.258 65.2754 214.832 67.2225 216.583 68.3428L219.817 63.2892C218.368 62.3615 216.014 60.5966 212.693 57.9142L208.923 62.5818ZM220.841 67.2383C221.734 65.5812 222.947 63.3466 224.482 60.5326L219.214 57.6594C217.677 60.4774 216.458 62.7228 215.559 64.3937L220.841 67.2383ZM224.456 60.578C226.057 57.7615 227.274 55.6152 228.108 54.1402L222.884 51.1878C222.054 52.6568 220.839 54.7985 219.24 57.614L224.456 60.578ZM228.108 54.1402C228.91 52.7207 230.133 50.6808 231.791 48.0031L226.689 44.8449C225.019 47.5432 223.746 49.6633 222.884 51.1878L228.108 54.1402ZM231.791 48.0031C233.44 45.3398 234.723 43.4214 235.658 42.1941L230.886 38.5579C229.773 40.0186 228.368 42.1322 226.689 44.8449L231.791 48.0031ZM235.646 42.2103C236.698 40.8487 238.076 39.1564 239.789 37.1266L235.203 33.2574C233.46 35.3236 232.022 37.0873 230.898 38.5417L235.646 42.2103ZM239.784 37.1329C241.488 35.124 242.929 33.769 244.105 32.9507L240.679 28.0253C238.911 29.255 237.088 31.036 235.208 33.2511L239.784 37.1329ZM244.129 32.934C248.42 29.8867 251.689 28.3721 254.031 27.9735L253.025 22.0585C249.351 22.6839 245.196 24.8173 240.655 28.042L244.129 32.934ZM253.984 27.9811C255.559 27.7388 256.805 27.632 257.752 27.632V21.632C256.395 21.632 254.825 21.7812 253.072 22.0509L253.984 27.9811ZM257.752 27.632C258.85 27.632 260.084 27.6625 261.456 27.7249L261.728 21.7311C260.284 21.6655 258.958 21.632 257.752 21.632V27.632ZM261.592 27.728C262.59 27.728 264.262 27.9928 266.749 28.6766L268.339 22.8914C265.706 22.1672 263.41 21.728 261.592 21.728V27.728ZM264.643 25.0205L264.163 26.8445L269.965 28.3715L270.445 26.5475L264.643 25.0205ZM267.904 24.728C266.188 24.2275 264.385 23.8758 262.499 23.6663L261.837 29.6297C263.407 29.8041 264.868 30.0925 266.224 30.488L267.904 24.728ZM259.261 25.9082C252.843 51.1313 249.111 71.434 248.134 86.7449L254.122 87.1271C255.065 72.358 258.693 52.4687 265.075 27.3878L259.261 25.9082ZM199.072 64.088C199.072 68.1975 197.893 71.7498 195.549 74.8573L200.339 78.4707C203.499 74.2822 205.072 69.4505 205.072 64.088H199.072ZM195.529 74.8844C193.418 77.7498 190.674 79.136 187 79.136V85.136C192.542 85.136 197.095 82.8742 200.359 78.4436L195.529 74.8844ZM187 79.136C184.633 79.136 182.938 78.4527 181.655 77.2548L177.561 81.6412C180.118 84.0273 183.351 85.136 187 85.136V79.136ZM181.692 77.2898C180.213 75.8618 179.824 74.7359 179.824 73.88H173.824C173.824 76.8641 175.291 79.4502 177.524 81.6062L181.692 77.2898ZM179.824 73.88C179.824 72.2279 180.077 71.1412 180.399 70.4603L174.977 67.8917C174.147 69.6428 173.824 71.6921 173.824 73.88H179.824ZM180.424 70.4071C180.904 69.3395 181.336 68.7798 181.626 68.5158L177.59 64.0762C176.472 65.0922 175.624 66.4525 174.952 67.9449L180.424 70.4071ZM181.529 68.6007C182.079 68.1418 182.663 67.7841 183.286 67.5174L180.922 62.0026C179.753 62.5039 178.673 63.1702 177.687 63.9913L181.529 68.6007ZM183.501 67.4148C184.012 67.1457 184.403 66.98 184.685 66.886C184.981 66.7874 185.062 66.8 184.984 66.8V60.8C183.519 60.8 182.017 61.4155 180.707 62.1052L183.501 67.4148ZM181.999 64.0985L182.191 66.0185L188.161 65.4215L187.969 63.5015L181.999 64.0985ZM185.176 62.72C182.484 62.72 180.248 64.0538 178.502 66.0485L183.018 69.9995C183.96 68.9222 184.668 68.72 185.176 68.72V62.72ZM178.502 66.0485C176.713 68.0939 175.744 70.513 175.744 73.208H181.744C181.744 72.063 182.119 71.0261 183.018 69.9995L178.502 66.0485ZM175.744 73.208C175.744 76.0009 176.855 78.4325 178.878 80.3679L183.026 76.0321C182.105 75.1515 181.744 74.2551 181.744 73.208H175.744ZM178.976 80.4577C181.174 82.3809 183.946 83.216 187 83.216V77.216C185.062 77.216 183.802 76.7071 182.928 75.9423L178.976 80.4577ZM187 83.216C192.015 83.216 196.155 81.1907 199.108 77.2005L194.284 73.6315C192.501 76.0413 190.177 77.216 187 77.216V83.216ZM199.108 77.2005C201.85 73.495 203.248 69.32 203.248 64.76H197.248C197.248 68.008 196.278 70.937 194.284 73.6315L199.108 77.2005ZM203.248 64.76C203.248 60.4406 202.36 56.5286 200.47 53.1271L195.226 56.0409C196.536 58.3994 197.248 61.2714 197.248 64.76H203.248ZM198.918 51.7813C195.087 50.3187 191.237 49.568 187.384 49.568V55.568C190.443 55.568 193.569 56.1613 196.778 57.3867L198.918 51.7813ZM187.384 49.568C183.577 49.568 180.137 50.4616 177.212 52.392C174.29 54.3198 172.09 57.1439 170.529 60.6642L176.015 63.0958C177.206 60.4081 178.734 58.5762 180.516 57.4C182.295 56.2264 184.535 55.568 187.384 55.568V49.568ZM174.175 59.0193L172.351 58.4433L170.545 64.1647L172.369 64.7407L174.175 59.0193ZM174.194 62.5122C174.753 61.2414 175.698 59.7495 177.119 58.0327L172.497 54.2073C170.846 56.2025 169.551 58.1666 168.702 60.0958L174.194 62.5122ZM177.123 58.0285C179.478 55.1715 182.766 53.648 187.384 53.648V47.648C181.25 47.648 176.154 49.7725 172.493 54.2115L177.123 58.0285ZM187.384 53.648C189.971 53.648 192.532 54.021 195.078 54.7731L196.778 49.0189C193.692 48.107 190.557 47.648 187.384 47.648V53.648ZM198.424 50.2319L198.232 49.9439L193.24 53.2721L193.432 53.5601L198.424 50.2319ZM197.947 49.5808C193.711 44.9589 187.721 42.848 180.472 42.848V48.848C186.535 48.848 190.721 50.5771 193.525 53.6352L197.947 49.5808ZM180.472 42.848C172.977 42.848 166.723 45.8136 161.934 51.6189L166.562 55.4371C170.221 51.0024 174.783 48.848 180.472 48.848V42.848ZM161.92 51.6362C157.321 57.2962 155.008 63.8537 155.008 71.192H161.008C161.008 65.2183 162.855 59.9998 166.576 55.4198L161.92 51.6362ZM155.008 71.192C155.008 78.4629 157.291 84.7189 161.952 89.7441L166.352 85.6639C162.821 81.8571 161.008 77.1051 161.008 71.192H155.008ZM161.948 89.7388C167.243 95.4758 174.549 98.192 183.448 98.192V92.192C175.835 92.192 170.277 89.9162 166.356 85.6692L161.948 89.7388ZM183.448 98.192C191.854 98.192 199.2 94.9848 205.357 88.7573L201.091 84.5387C195.984 89.7032 190.146 92.192 183.448 92.192V98.192ZM205.321 88.7936C208.259 85.922 210.817 82.9308 212.983 79.8172L208.057 76.3908C206.127 79.1652 203.821 81.87 201.127 84.5024L205.321 88.7936ZM212.958 79.8527C215.138 76.8129 217.461 73.1782 219.926 68.9621L214.746 65.9339C212.347 70.0378 210.126 73.5071 208.082 76.3553L212.958 79.8527ZM218.966 64.9293C216.888 63.5851 214.306 61.7213 211.206 59.3173L207.53 64.0587C210.702 66.5187 213.432 68.4949 215.706 69.9667L218.966 64.9293ZM211.26 59.3597C208.06 56.7595 204.908 54.6507 201.805 53.0647L199.075 58.4073C201.732 59.7653 204.532 61.6245 207.476 64.0163L211.26 59.3597ZM197.659 56.8616C198.603 59.1945 199.072 61.5965 199.072 64.088H205.072C205.072 60.8195 204.453 57.6535 203.221 54.6104L197.659 56.8616ZM218.396 69.4516C222.778 72.0529 227.054 73.52 231.16 73.52V67.52C228.482 67.52 225.27 66.5551 221.46 64.2924L218.396 69.4516ZM231.16 73.52C234.929 73.52 238.394 72.9265 241.502 71.6688L239.25 66.1072C236.982 67.0255 234.303 67.52 231.16 67.52V73.52ZM243.346 69.3098C244.86 58.6514 247.709 45.3339 251.917 29.3309L246.115 27.8051C241.875 43.9301 238.964 57.4926 237.406 68.4662L243.346 69.3098ZM247.729 25.8582C242.002 28.5785 236.927 33.3209 232.436 39.823L237.372 43.233C241.457 37.3191 245.79 33.4215 250.303 31.2778L247.729 25.8582ZM232.446 39.8076C229.222 44.4131 225.388 50.7579 220.95 58.7982L226.202 61.6978C230.596 53.7381 234.314 47.6029 237.362 43.2484L232.446 39.8076ZM220.948 58.8008L217.3 65.4248L222.556 68.3192L226.204 61.6952L220.948 58.8008ZM283.824 59.192L280.884 59.7919L280.89 59.8206L280.896 59.8491L283.824 59.192ZM282.672 53.336L285.631 52.8428L284.653 46.9768L280.516 51.2492L282.672 53.336ZM269.52 60.632H266.52V64.1887L270.025 63.5891L269.52 60.632ZM269.52 58.328L268.869 55.3994L266.52 55.9215V58.328H269.52ZM282.48 50.456L284.65 52.5274L285.48 51.658V50.456H282.48ZM284.496 42.296L281.965 40.6854L284.496 42.296ZM285.168 41.24V38.24H283.521L282.637 39.6294L285.168 41.24ZM287.472 41.24H290.472V38.24H287.472V41.24ZM288.816 49.016L286.01 50.0777L286.015 50.0905L286.019 50.1033L288.816 49.016ZM291.792 54.68L289.379 56.4632L289.398 56.489L289.418 56.5143L291.792 54.68ZM294.768 60.344L291.962 61.4057L291.967 61.4185L291.971 61.4313L294.768 60.344ZM290.928 79.352L288.958 77.0891L288.947 77.0982L288.937 77.1074L290.928 79.352ZM267.696 80.6L265.695 82.8357L265.71 82.8486L265.724 82.8613L267.696 80.6ZM266.16 66.968L268.12 69.2385L268.149 69.2135L268.178 69.1878L266.16 66.968ZM275.856 66.968L273.681 69.0342L273.733 69.09L273.789 69.143L275.856 66.968ZM275.952 76.664L278.176 78.6767L275.952 76.664ZM268.656 78.296L269.48 75.4114L261.456 73.1188L266.183 79.9956L268.656 78.296ZM275.376 84.368C279.396 84.368 282.769 82.8182 284.986 79.5477C287.063 76.4854 287.88 72.2691 287.88 67.352H281.88C281.88 71.7789 281.112 74.5706 280.021 76.1803C279.07 77.5818 277.691 78.368 275.376 78.368V84.368ZM287.88 67.352C287.88 64.7594 287.486 61.8089 286.751 58.5349L280.896 59.8491C281.569 62.8471 281.88 65.3366 281.88 67.352H287.88ZM286.763 58.5921C286.119 55.4353 285.748 53.5449 285.631 52.8428L279.712 53.8292C279.851 54.6631 280.248 56.6767 280.884 59.7919L286.763 58.5921ZM280.516 51.2492C276.992 54.8888 273.165 56.9648 269.014 57.6749L270.025 63.5891C275.602 62.6352 280.543 59.8472 284.827 55.4228L280.516 51.2492ZM272.52 60.632V58.328H266.52V60.632H272.52ZM270.17 61.2566C275.483 60.076 280.305 57.0788 284.65 52.5274L280.309 48.3846C276.59 52.2812 272.772 54.532 268.869 55.3994L270.17 61.2566ZM285.48 50.456V50.072H279.48V50.456H285.48ZM285.48 50.072C285.48 48.8325 285.66 47.6228 286.022 46.4335L280.281 44.6865C279.747 46.4412 279.48 48.2395 279.48 50.072H285.48ZM286.022 46.4335C286.445 45.0419 286.799 44.264 287.026 43.9066L281.965 40.6854C281.296 41.736 280.754 43.1341 280.281 44.6865L286.022 46.4335ZM287.026 43.9066L287.698 42.8506L282.637 39.6294L281.965 40.6854L287.026 43.9066ZM285.168 44.24H287.472V38.24H285.168V44.24ZM284.472 41.24C284.472 44.3782 284.972 47.3345 286.01 50.0777L291.621 47.9543C290.867 45.9615 290.472 43.7338 290.472 41.24H284.472ZM286.019 50.1033C286.981 52.5748 288.089 54.7174 289.379 56.4632L294.204 52.8968C293.318 51.6986 292.442 50.0652 291.612 47.9287L286.019 50.1033ZM289.418 56.5143C290.265 57.6115 291.13 59.2081 291.962 61.4057L297.573 59.2823C296.613 56.7439 295.494 54.5645 294.165 52.8457L289.418 56.5143ZM291.971 61.4313C292.715 63.3439 293.112 65.5287 293.112 68.024H299.112C299.112 64.8873 298.612 61.9521 297.564 59.2567L291.971 61.4313ZM293.112 68.024C293.112 71.6919 291.766 74.6454 288.958 77.0891L292.897 81.6149C297.001 78.0426 299.112 73.4441 299.112 68.024H293.112ZM288.937 77.1074C286.128 79.5984 282.753 80.864 278.64 80.864V86.864C284.126 86.864 288.943 85.1216 292.918 81.5966L288.937 77.1074ZM278.64 80.864C274.244 80.864 271.416 79.8635 269.667 78.3387L265.724 82.8613C268.967 85.6885 273.435 86.864 278.64 86.864V80.864ZM269.696 78.3643C267.789 76.6578 267.048 74.9357 267.048 73.112H261.048C261.048 76.9203 262.738 80.1902 265.695 82.8357L269.696 78.3643ZM267.048 73.112C267.048 70.6267 267.663 69.6331 268.12 69.2385L264.199 64.6975C261.84 66.7349 261.048 69.8373 261.048 73.112H267.048ZM268.178 69.1878C269.028 68.4148 269.97 68.048 271.152 68.048V62.048C268.493 62.048 266.107 62.9612 264.141 64.7482L268.178 69.1878ZM271.152 68.048C272.329 68.048 273.084 68.406 273.681 69.0342L278.03 64.9018C276.195 62.97 273.814 62.048 271.152 62.048V68.048ZM273.789 69.143C274.396 69.7198 274.776 70.4943 274.776 71.768H280.776C280.776 69.0737 279.875 66.6482 277.922 64.793L273.789 69.143ZM274.776 71.768C274.776 72.9924 274.412 73.8936 273.727 74.6513L278.176 78.6767C279.923 76.7464 280.776 74.3836 280.776 71.768H274.776ZM273.727 74.6513C273.117 75.3258 272.377 75.68 271.248 75.68V81.68C273.958 81.68 276.354 80.6902 278.176 78.6767L273.727 74.6513ZM271.248 75.68C270.725 75.68 270.139 75.5999 269.48 75.4114L267.831 81.1806C268.964 81.5041 270.106 81.68 271.248 81.68V75.68ZM266.183 79.9956C268.286 83.0533 271.579 84.368 275.376 84.368V78.368C273.028 78.368 271.841 77.6347 271.128 76.5964L266.183 79.9956ZM337.695 81.944L334.698 81.8078L334.556 84.944H337.695V81.944ZM342.495 79.256L344.369 76.9134L342.193 75.1725L340.297 77.2146L342.495 79.256ZM343.935 80.408L346.619 81.7496L347.703 79.5804L345.809 78.0654L343.935 80.408ZM340.959 82.808L339.709 80.0808L340.959 82.808ZM328.863 63.992L325.922 63.4037L328.863 63.992ZM320.319 52.952L317.857 51.2388L317.844 51.257L317.831 51.2754L320.319 52.952ZM315.423 64.952L312.515 64.2157L312.488 64.3237L312.468 64.4333L315.423 64.952ZM312.255 83V86H314.775L315.21 83.5187L312.255 83ZM300.735 83L297.781 82.4778L297.158 86H300.735V83ZM311.391 22.712L314.345 23.2342L315.035 19.3327L311.093 19.7269L311.391 22.712ZM306.591 25.4L304.717 27.7426L307.06 29.6167L308.934 27.2741L306.591 25.4ZM305.151 24.248L302.847 22.3274L300.887 24.6787L303.277 26.5906L305.151 24.248ZM319.167 23L317.136 25.2078L319.167 23ZM321.375 31.736L324.329 32.2595L324.346 32.1638L324.357 32.0673L321.375 31.736ZM317.343 54.488L314.389 53.9645L320.083 55.7092L317.343 54.488ZM338.367 48.92L336.215 51.0094L336.23 51.0255L336.246 51.0413L338.367 48.92ZM339.711 69.272L342.644 69.9051L342.645 69.8983L339.711 69.272ZM337.695 84.944C340.449 84.944 342.79 83.3476 344.694 81.2974L340.297 77.2146C338.873 78.7484 338.014 78.944 337.695 78.944V84.944ZM340.621 81.5986L342.061 82.7506L345.809 78.0654L344.369 76.9134L340.621 81.5986ZM341.252 79.0664C341.265 79.04 341.221 79.1438 340.972 79.3448C340.721 79.5471 340.319 79.8012 339.709 80.0808L342.209 85.5352C343.977 84.7249 345.716 83.5541 346.619 81.7496L341.252 79.0664ZM339.709 80.0808C338.603 80.588 337.339 80.864 335.871 80.864V86.864C338.116 86.864 340.244 86.436 342.209 85.5352L339.709 80.0808ZM335.871 80.864C333.349 80.864 332.017 80.2891 331.327 79.6673C330.697 79.0991 330.135 78.0682 330.135 75.992H324.135C324.135 79.1638 325.03 82.0689 327.311 84.1247C329.533 86.1269 332.57 86.864 335.871 86.864V80.864ZM330.135 75.992C330.135 74.0878 330.649 70.3603 331.805 64.5803L325.922 63.4037C324.774 69.1437 324.135 73.4162 324.135 75.992H330.135ZM331.805 64.5803C332.943 58.8894 333.591 54.8089 333.591 52.664H327.591C327.591 54.1031 327.087 57.5746 325.922 63.4037L331.805 64.5803ZM333.591 52.664C333.591 50.8603 333.164 48.9506 331.778 47.4978C330.368 46.0182 328.467 45.536 326.655 45.536V51.536C327.467 51.536 327.535 51.7417 327.436 51.6382C327.363 51.5614 327.591 51.7157 327.591 52.664H333.591ZM326.655 45.536C322.994 45.536 320.099 48.0159 317.857 51.2388L322.782 54.6652C324.636 52.0001 325.964 51.536 326.655 51.536V45.536ZM317.831 51.2754C315.586 54.6071 313.844 58.967 312.515 64.2157L318.331 65.6883C319.563 60.825 321.084 57.1849 322.807 54.6286L317.831 51.2754ZM312.468 64.4333L309.3 82.4813L315.21 83.5187L318.378 65.4707L312.468 64.4333ZM312.255 80H300.735V86H312.255V80ZM303.689 83.5222L314.345 23.2342L308.437 22.1898L297.781 82.4778L303.689 83.5222ZM311.093 19.7269C308.316 20.0046 305.998 21.3391 304.249 23.5259L308.934 27.2741C309.744 26.2609 310.627 25.8034 311.69 25.6971L311.093 19.7269ZM308.465 23.0574L307.025 21.9054L303.277 26.5906L304.717 27.7426L308.465 23.0574ZM307.456 26.1685C308.833 24.516 310.403 23.792 312.351 23.792V17.792C308.539 17.792 305.309 19.372 302.847 22.3274L307.456 26.1685ZM312.351 23.792C314.813 23.792 316.261 24.4027 317.136 25.2078L321.198 20.7922C318.874 18.6533 315.777 17.792 312.351 17.792V23.792ZM317.136 25.2078C317.978 25.9819 318.567 27.178 318.567 29.24H324.567C324.567 25.926 323.557 22.9621 321.198 20.7922L317.136 25.2078ZM318.567 29.24C318.567 29.572 318.521 30.2608 318.394 31.4047L324.357 32.0673C324.486 30.9072 324.567 29.932 324.567 29.24H318.567ZM318.421 31.2125L314.389 53.9645L320.297 55.0115L324.329 32.2595L318.421 31.2125ZM320.083 55.7092C321.241 53.1128 322.62 51.3798 324.119 50.2935C325.59 49.2284 327.351 48.656 329.535 48.656V42.656C326.216 42.656 323.193 43.5556 320.599 45.4345C318.035 47.2922 316.07 49.9752 314.603 53.2668L320.083 55.7092ZM329.535 48.656C332.711 48.656 334.799 49.5515 336.215 51.0094L340.52 46.8306C337.711 43.9365 333.911 42.656 329.535 42.656V48.656ZM336.246 51.0413C337.656 52.4515 338.535 54.5504 338.535 57.752H344.535C344.535 53.4016 343.302 49.6125 340.489 46.7987L336.246 51.0413ZM338.535 57.752C338.535 59.3682 338.004 62.9015 336.777 68.6457L342.645 69.8983C343.851 64.2505 344.535 60.1038 344.535 57.752H338.535ZM336.779 68.6389C335.556 74.3024 334.838 78.7292 334.698 81.8078L340.692 82.0802C340.808 79.5268 341.434 75.5056 342.644 69.9051L336.779 68.6389ZM366.237 80.408L368.541 82.3286L370.501 79.9773L368.111 78.0654L366.237 80.408ZM352.221 81.656L350.189 83.8638L350.211 83.8836L350.233 83.903L352.221 81.656ZM351.357 65.432L348.406 64.8881L348.402 64.9134L348.397 64.9388L351.357 65.432ZM354.525 48.248L357.475 48.7919L358.128 45.248H354.525V48.248ZM350.493 48.248L347.511 47.9167L347.141 51.248H350.493V48.248ZM350.685 46.52V43.52H347.999L347.703 46.1887L350.685 46.52ZM365.277 45.944L365.783 48.9009L365.844 48.8904L365.905 48.8774L365.277 45.944ZM366.621 45.656L369.572 46.1947L370.377 41.7829L365.992 42.7226L366.621 45.656ZM359.997 81.944L357.045 81.4053L356.33 85.3256L360.295 84.9291L359.997 81.944ZM364.797 79.256L366.671 76.9134L364.328 75.0393L362.454 77.3819L364.797 79.256ZM357.789 36.44L355.667 38.5613L357.789 36.44ZM357.789 26.648L359.91 28.7693L359.934 28.7447L359.959 28.7194L357.789 26.648ZM367.581 26.648L365.41 28.7194L365.459 28.7699L365.509 28.8181L367.581 26.648ZM367.581 36.44L365.509 34.2699L365.484 34.294L365.459 34.3187L367.581 36.44ZM363.932 78.4874C362.555 80.14 360.985 80.864 359.037 80.864V86.864C362.848 86.864 366.078 85.284 368.541 82.3286L363.932 78.4874ZM359.037 80.864C356.666 80.864 355.177 80.2664 354.208 79.409L350.233 83.903C352.592 85.9896 355.647 86.864 359.037 86.864V80.864ZM354.252 79.4482C353.328 78.5985 352.821 77.5085 352.821 75.896H346.821C346.821 79.0195 347.913 81.7695 350.189 83.8638L354.252 79.4482ZM352.821 75.896C352.821 75.9194 352.82 75.8731 352.834 75.7152C352.846 75.5716 352.866 75.3777 352.896 75.1271C352.955 74.6262 353.047 73.9508 353.173 73.0917C353.425 71.3761 353.805 68.9901 354.316 65.9252L348.397 64.9388C347.884 68.0179 347.496 70.4479 347.236 72.2203C346.993 73.8744 346.821 75.2092 346.821 75.896H352.821ZM354.307 65.9759L357.475 48.7919L351.574 47.7041L348.406 64.8881L354.307 65.9759ZM354.525 45.248H350.493V51.248H354.525V45.248ZM353.474 48.5793L353.666 46.8513L347.703 46.1887L347.511 47.9167L353.474 48.5793ZM350.685 49.52H354.812V43.52H350.685V49.52ZM354.812 49.52C359.577 49.52 363.278 49.3303 365.783 48.9009L364.77 42.9871C362.795 43.3257 359.52 43.52 354.812 43.52V49.52ZM365.905 48.8774L367.249 48.5894L365.992 42.7226L364.648 43.0106L365.905 48.8774ZM363.669 45.1173L357.045 81.4053L362.948 82.4827L369.572 46.1947L363.669 45.1173ZM360.295 84.9291C363.072 84.6514 365.39 83.3169 367.139 81.1301L362.454 77.3819C361.643 78.3951 360.761 78.8526 359.698 78.9589L360.295 84.9291ZM362.922 81.5986L364.362 82.7506L368.111 78.0654L366.671 76.9134L362.922 81.5986ZM359.91 34.3187C359.135 33.5437 358.773 32.6774 358.773 31.544H352.773C352.773 34.2506 353.754 36.6483 355.667 38.5613L359.91 34.3187ZM358.773 31.544C358.773 30.4106 359.135 29.5443 359.91 28.7693L355.667 24.5267C353.754 26.4397 352.773 28.8374 352.773 31.544H358.773ZM359.959 28.7194C360.745 27.8952 361.597 27.536 362.685 27.536V21.536C359.932 21.536 357.52 22.5848 355.618 24.5766L359.959 28.7194ZM362.685 27.536C363.772 27.536 364.624 27.8952 365.41 28.7194L369.751 24.5766C367.849 22.5848 365.437 21.536 362.685 21.536V27.536ZM365.509 28.8181C366.333 29.6048 366.693 30.4566 366.693 31.544H372.693C372.693 28.7914 371.644 26.3792 369.652 24.4779L365.509 28.8181ZM366.693 31.544C366.693 32.6314 366.333 33.4832 365.509 34.2699L369.652 38.6101C371.644 36.7088 372.693 34.2966 372.693 31.544H366.693ZM365.459 34.3187C364.684 35.0937 363.818 35.456 362.685 35.456V41.456C365.391 41.456 367.789 40.4743 369.702 38.5613L365.459 34.3187ZM362.685 35.456C361.551 35.456 360.685 35.0937 359.91 34.3187L355.667 38.5613C357.58 40.4743 359.978 41.456 362.685 41.456V35.456ZM385.551 64.472L386.068 61.5169L383.145 61.0055L382.601 63.9219L385.551 64.472ZM382.095 83V86H384.587L385.044 83.5501L382.095 83ZM370.671 83L367.718 82.4687L367.083 86H370.671V83ZM381.519 22.712L384.471 23.2433L385.175 19.3314L381.22 19.7269L381.519 22.712ZM376.719 25.4L374.844 27.7426L377.187 29.6167L379.061 27.2741L376.719 25.4ZM375.279 24.248L372.974 22.3274L371.014 24.6787L373.404 26.5906L375.279 24.248ZM389.295 23L387.263 25.2078L389.295 23ZM391.503 31.736L394.454 32.2706L394.473 32.1695L394.484 32.0673L391.503 31.736ZM386.703 58.04L383.752 57.498L389.478 59.1777L386.703 58.04ZM393.615 48.92L391.856 46.4893L393.615 48.92ZM410.319 47.672L408.197 49.7933L408.222 49.818L408.247 49.8421L410.319 47.672ZM410.607 57.656L412.781 59.7222H412.782L410.607 57.656ZM401.295 57.944L399.052 59.9371L399.111 60.003L399.173 60.0653L401.295 57.944ZM402.063 47.864L403.863 50.264L412.716 43.6236L401.721 44.8835L402.063 47.864ZM387.375 61.496L384.624 60.2991L382.48 65.2257L387.799 64.4658L387.375 61.496ZM397.647 63.32L395.926 65.7777L395.945 65.7909L395.964 65.8038L397.647 63.32ZM401.487 68.312L398.605 69.1484L398.609 69.1613L398.613 69.174L401.487 68.312ZM402.735 74.168L399.759 74.5519L399.761 74.5645L402.735 74.168ZM403.983 79.064L401.225 80.2458L403.983 79.064ZM410.511 79.256L412.385 76.9134L409.86 74.8938L408.035 77.5619L410.511 79.256ZM411.951 80.408L414.634 81.7496L415.718 79.5804L413.825 78.0654L411.951 80.408ZM408.975 82.808L410.224 85.5352L408.975 82.808ZM396.687 82.04L395.002 84.5224L395.022 84.5361L395.042 84.5494L396.687 82.04ZM392.943 77.528L390.138 78.592L390.144 78.6085L390.15 78.625L392.943 77.528ZM391.215 72.056L394.125 71.3284L394.12 71.3094L394.115 71.2905L391.215 72.056ZM382.601 63.9219L379.145 82.4499L385.044 83.5501L388.5 65.0221L382.601 63.9219ZM382.095 80H370.671V86H382.095V80ZM373.623 83.5313L384.471 23.2433L378.566 22.1807L367.718 82.4687L373.623 83.5313ZM381.22 19.7269C378.443 20.0046 376.125 21.3391 374.376 23.5259L379.061 27.2741C379.872 26.2609 380.754 25.8034 381.817 25.6971L381.22 19.7269ZM378.593 23.0574L377.153 21.9054L373.404 26.5906L374.844 27.7426L378.593 23.0574ZM377.583 26.1686C378.96 24.516 380.53 23.792 382.479 23.792V17.792C378.667 17.792 375.437 19.372 372.974 22.3274L377.583 26.1686ZM382.479 23.792C384.94 23.792 386.388 24.4027 387.263 25.2078L391.326 20.7922C389.001 18.6533 385.905 17.792 382.479 17.792V23.792ZM387.263 25.2078C388.105 25.9819 388.695 27.178 388.695 29.24H394.695C394.695 25.926 393.684 22.9621 391.326 20.7922L387.263 25.2078ZM388.695 29.24C388.695 29.572 388.648 30.2608 388.521 31.4047L394.484 32.0673C394.613 30.9072 394.695 29.932 394.695 29.24H388.695ZM388.551 31.2014C387.079 39.3266 385.479 48.0921 383.752 57.498L389.653 58.582C391.382 49.1719 392.982 40.4014 394.454 32.2706L388.551 31.2014ZM389.478 59.1777C390.896 55.7188 392.877 53.1559 395.373 51.3507L391.856 46.4893C388.336 49.036 385.709 52.5532 383.927 56.9023L389.478 59.1777ZM395.373 51.3507C397.92 49.508 400.514 48.656 403.215 48.656V42.656C399.131 42.656 395.325 43.98 391.856 46.4893L395.373 51.3507ZM403.215 48.656C406.383 48.656 407.721 49.317 408.197 49.7933L412.44 45.5507C410.228 43.339 406.83 42.656 403.215 42.656V48.656ZM408.247 49.8421C409.028 50.5877 409.431 51.4839 409.431 52.76H415.431C415.431 49.9401 414.425 47.4443 412.39 45.5019L408.247 49.8421ZM409.431 52.76C409.431 54.0781 409.051 54.9378 408.432 55.5898L412.782 59.7222C414.594 57.8142 415.431 55.4099 415.431 52.76H409.431ZM408.432 55.5898C407.855 56.1969 407.08 56.576 405.807 56.576V62.576C408.501 62.576 410.926 61.6751 412.781 59.7222L408.432 55.5898ZM405.807 56.576C404.474 56.576 403.809 56.2161 403.416 55.8227L399.173 60.0653C400.956 61.8479 403.299 62.576 405.807 62.576V56.576ZM403.537 55.9509C403.169 55.5376 402.759 54.6941 402.759 52.952H396.759C396.759 55.5619 397.372 58.0464 399.052 59.9371L403.537 55.9509ZM402.759 52.952C402.759 51.4778 403.214 50.7503 403.863 50.264L400.263 45.464C397.839 47.2817 396.759 49.9462 396.759 52.952H402.759ZM401.721 44.8835C394.054 45.762 388.475 51.4468 384.624 60.2991L390.125 62.6929C393.57 54.7772 397.783 51.374 402.404 50.8445L401.721 44.8835ZM387.799 64.4658C388.607 64.3504 389.225 64.304 389.679 64.304V58.304C388.852 58.304 387.934 58.3856 386.95 58.5262L387.799 64.4658ZM389.679 64.304C392.718 64.304 394.69 64.9124 395.926 65.7777L399.367 60.8623C396.763 59.0396 393.423 58.304 389.679 58.304V64.304ZM395.964 65.8038C397.466 66.8213 398.255 67.9416 398.605 69.1484L404.368 67.4756C403.566 64.7144 401.795 62.5067 399.329 60.8362L395.964 65.8038ZM398.613 69.174C399.142 70.938 399.524 72.7301 399.759 74.5519L405.71 73.7841C405.433 71.6379 404.983 69.526 404.36 67.45L398.613 69.174ZM399.761 74.5645C400.042 76.6729 400.513 78.585 401.225 80.2458L406.74 77.8822C406.3 76.855 405.939 75.5031 405.708 73.7715L399.761 74.5645ZM401.225 80.2458C401.7 81.3528 402.443 82.3665 403.537 83.0841C404.629 83.8009 405.853 84.08 407.055 84.08V78.08C406.914 78.08 406.84 78.064 406.814 78.0572C406.793 78.0513 406.804 78.0517 406.828 78.0679C406.853 78.0841 406.86 78.0953 406.848 78.081C406.835 78.0638 406.793 78.0061 406.74 77.8822L401.225 80.2458ZM407.055 84.08C409.518 84.08 411.596 82.9824 412.986 80.9501L408.035 77.5619C407.761 77.9616 407.535 78.08 407.055 78.08V84.08ZM408.636 81.5986L410.076 82.7506L413.825 78.0654L412.385 76.9134L408.636 81.5986ZM409.267 79.0664C409.28 79.04 409.236 79.1438 408.987 79.3448C408.736 79.5471 408.335 79.8012 407.725 80.0808L410.224 85.5352C411.992 84.7249 413.732 83.5541 414.634 81.7496L409.267 79.0664ZM407.725 80.0808C406.714 80.5441 405.198 80.864 403.023 80.864V86.864C405.711 86.864 408.163 86.4799 410.224 85.5352L407.725 80.0808ZM403.023 80.864C401.197 80.864 399.665 80.4047 398.331 79.5306L395.042 84.5494C397.42 86.1073 400.112 86.864 403.023 86.864V80.864ZM398.371 79.5576C397.015 78.6372 396.191 77.5914 395.735 76.431L390.15 78.625C391.102 81.0486 392.774 83.0108 395.002 84.5224L398.371 79.5576ZM395.747 76.464C395.082 74.7099 394.542 72.9982 394.125 71.3284L388.304 72.7836C388.783 74.6978 389.395 76.6341 390.138 78.592L395.747 76.464ZM394.115 71.2905C392.858 66.5248 390.522 62.2964 386.068 61.5169L385.033 67.4271C385.699 67.5436 387.139 68.3712 388.314 72.8215L394.115 71.2905Z" fill="#00AAC1"/>
</g>
<g filter="url(#filter2_di)">
<path d="M249.3 116.55L241.6 130.3H233.9L226.2 116.55V138H216.3V99.5H226.75L237.75 119.85L248.75 99.5H259.2V138H249.3V116.55ZM282.046 115.175C280.58 115.175 279.846 115.908 279.846 117.375V120.4H289.196V117.375C289.196 115.908 288.463 115.175 286.996 115.175H282.046ZM297.721 137.45C290.645 138.183 284.228 138.55 278.471 138.55C275.978 138.55 273.98 137.798 272.476 136.295C270.973 134.792 270.221 132.793 270.221 130.3V117.1C270.221 114.35 270.991 112.205 272.531 110.665C274.108 109.088 276.271 108.3 279.021 108.3H290.021C292.771 108.3 294.916 109.088 296.456 110.665C298.033 112.205 298.821 114.35 298.821 117.1V127.275H279.846V129.475C279.846 130.025 280.03 130.483 280.396 130.85C280.763 131.217 281.221 131.4 281.771 131.4C285.401 131.4 290.718 131.125 297.721 130.575V137.45ZM329.875 138L329.325 135.25C327.602 136.387 325.823 137.23 323.99 137.78C322.193 138.293 320.672 138.55 319.425 138.55H316.95C314.457 138.55 312.458 137.798 310.955 136.295C309.452 134.792 308.7 132.793 308.7 130.3V117.65C308.7 114.9 309.47 112.755 311.01 111.215C312.587 109.638 314.75 108.85 317.5 108.85H328.775V99.5H338.4V138H329.875ZM322.175 130.575C324.118 130.575 326.318 130.208 328.775 129.475V116.275H320.525C319.058 116.275 318.325 117.008 318.325 118.475V128.65C318.325 129.2 318.508 129.658 318.875 130.025C319.242 130.392 319.7 130.575 320.25 130.575H322.175ZM361.494 109.95V138H351.869V117.375H347.744V109.95H361.494ZM351.869 98.95H361.494V106.65H351.869V98.95ZM384.061 130.85C386.004 130.85 388.204 130.483 390.661 129.75V126.45H382.686C382.136 126.45 381.677 126.633 381.311 127C380.944 127.367 380.761 127.825 380.761 128.375V128.925C380.761 129.475 380.944 129.933 381.311 130.3C381.677 130.667 382.136 130.85 382.686 130.85H384.061ZM373.886 109.4C380.596 108.667 386.646 108.3 392.036 108.3C394.529 108.3 396.527 109.052 398.031 110.555C399.534 112.058 400.286 114.057 400.286 116.55V138H391.761L391.211 135.25C389.487 136.387 387.709 137.23 385.876 137.78C384.079 138.293 382.557 138.55 381.311 138.55H379.386C376.892 138.55 374.894 137.798 373.391 136.295C371.887 134.792 371.136 132.793 371.136 130.3V127.825C371.136 125.332 371.887 123.333 373.391 121.83C374.894 120.327 376.892 119.575 379.386 119.575H390.661V117.375C390.661 116.825 390.477 116.367 390.111 116C389.744 115.633 389.286 115.45 388.736 115.45C386.352 115.45 383.712 115.56 380.816 115.78C377.956 116 375.646 116.165 373.886 116.275V109.4Z" fill="#5AE1FF"/>
<path d="M249.3 116.55H250.3V112.718L248.427 116.061L249.3 116.55ZM241.6 130.3V131.3H242.186L242.473 130.789L241.6 130.3ZM233.9 130.3L233.027 130.789L233.314 131.3H233.9V130.3ZM226.2 116.55L227.073 116.061L225.2 112.718V116.55H226.2ZM226.2 138V139H227.2V138H226.2ZM216.3 138H215.3V139H216.3V138ZM216.3 99.5V98.5H215.3V99.5H216.3ZM226.75 99.5L227.63 99.0245L227.346 98.5H226.75V99.5ZM237.75 119.85L236.87 120.326L237.75 121.953L238.63 120.326L237.75 119.85ZM248.75 99.5V98.5H248.154L247.87 99.0245L248.75 99.5ZM259.2 99.5H260.2V98.5H259.2V99.5ZM259.2 138V139H260.2V138H259.2ZM249.3 138H248.3V139H249.3V138ZM248.427 116.061L240.727 129.811L242.473 130.789L250.173 117.039L248.427 116.061ZM241.6 129.3H233.9V131.3H241.6V129.3ZM234.773 129.811L227.073 116.061L225.327 117.039L233.027 130.789L234.773 129.811ZM225.2 116.55V138H227.2V116.55H225.2ZM226.2 137H216.3V139H226.2V137ZM217.3 138V99.5H215.3V138H217.3ZM216.3 100.5H226.75V98.5H216.3V100.5ZM225.87 99.9755L236.87 120.326L238.63 119.374L227.63 99.0245L225.87 99.9755ZM238.63 120.326L249.63 99.9755L247.87 99.0245L236.87 119.374L238.63 120.326ZM248.75 100.5H259.2V98.5H248.75V100.5ZM258.2 99.5V138H260.2V99.5H258.2ZM259.2 137H249.3V139H259.2V137ZM250.3 138V116.55H248.3V138H250.3ZM279.846 120.4H278.846V121.4H279.846V120.4ZM289.196 120.4V121.4H290.196V120.4H289.196ZM297.721 137.45L297.825 138.445L298.721 138.352V137.45H297.721ZM272.476 136.295L271.769 137.002L271.769 137.002L272.476 136.295ZM272.531 110.665L273.239 111.372L273.239 111.372L272.531 110.665ZM296.456 110.665L295.741 111.364L295.749 111.372L295.758 111.38L296.456 110.665ZM298.821 127.275V128.275H299.821V127.275H298.821ZM279.846 127.275V126.275H278.846V127.275H279.846ZM280.396 130.85L281.104 130.143L281.104 130.143L280.396 130.85ZM297.721 130.575H298.721V129.493L297.643 129.578L297.721 130.575ZM282.046 114.175C281.159 114.175 280.31 114.398 279.689 115.018C279.069 115.638 278.846 116.488 278.846 117.375H280.846C280.846 116.796 280.991 116.545 281.104 116.432C281.217 116.319 281.467 116.175 282.046 116.175V114.175ZM278.846 117.375V120.4H280.846V117.375H278.846ZM279.846 121.4H289.196V119.4H279.846V121.4ZM290.196 120.4V117.375H288.196V120.4H290.196ZM290.196 117.375C290.196 116.488 289.974 115.638 289.354 115.018C288.733 114.398 287.884 114.175 286.996 114.175V116.175C287.576 116.175 287.826 116.319 287.939 116.432C288.052 116.545 288.196 116.796 288.196 117.375H290.196ZM286.996 114.175H282.046V116.175H286.996V114.175ZM297.618 136.455C290.568 137.186 284.187 137.55 278.471 137.55V139.55C284.269 139.55 290.721 139.181 297.825 138.445L297.618 136.455ZM278.471 137.55C276.194 137.55 274.467 136.871 273.184 135.588L271.769 137.002C273.493 138.725 275.762 139.55 278.471 139.55V137.55ZM273.184 135.588C271.9 134.304 271.221 132.578 271.221 130.3H269.221C269.221 133.009 270.046 135.279 271.769 137.002L273.184 135.588ZM271.221 130.3V117.1H269.221V130.3H271.221ZM271.221 117.1C271.221 114.542 271.932 112.678 273.239 111.372L271.824 109.958C270.051 111.732 269.221 114.158 269.221 117.1H271.221ZM273.239 111.372C274.586 110.025 276.471 109.3 279.021 109.3V107.3C276.072 107.3 273.63 108.152 271.824 109.958L273.239 111.372ZM279.021 109.3H290.021V107.3H279.021V109.3ZM290.021 109.3C292.573 109.3 294.434 110.025 295.741 111.364L297.172 109.966C295.399 108.152 292.97 107.3 290.021 107.3V109.3ZM295.758 111.38C297.096 112.688 297.821 114.549 297.821 117.1H299.821C299.821 114.151 298.97 111.722 297.155 109.95L295.758 111.38ZM297.821 117.1V127.275H299.821V117.1H297.821ZM298.821 126.275H279.846V128.275H298.821V126.275ZM278.846 127.275V129.475H280.846V127.275H278.846ZM278.846 129.475C278.846 130.272 279.123 130.991 279.689 131.557L281.104 130.143C280.937 129.976 280.846 129.778 280.846 129.475H278.846ZM279.689 131.557C280.256 132.124 280.974 132.4 281.771 132.4V130.4C281.469 130.4 281.27 130.31 281.104 130.143L279.689 131.557ZM281.771 132.4C285.442 132.4 290.79 132.122 297.8 131.572L297.643 129.578C290.647 130.128 285.361 130.4 281.771 130.4V132.4ZM296.721 130.575V137.45H298.721V130.575H296.721ZM329.875 138L328.894 138.196L329.055 139H329.875V138ZM329.325 135.25L330.306 135.054L330.014 133.597L328.774 134.415L329.325 135.25ZM323.99 137.78L324.265 138.742L324.277 138.738L323.99 137.78ZM310.955 136.295L310.248 137.002L310.248 137.002L310.955 136.295ZM311.01 111.215L311.717 111.922L311.717 111.922L311.01 111.215ZM328.775 108.85V109.85H329.775V108.85H328.775ZM328.775 99.5V98.5H327.775V99.5H328.775ZM338.4 99.5H339.4V98.5H338.4V99.5ZM338.4 138V139H339.4V138H338.4ZM328.775 129.475L329.061 130.433L329.775 130.22V129.475H328.775ZM328.775 116.275H329.775V115.275H328.775V116.275ZM318.875 130.025L319.582 129.318L319.582 129.318L318.875 130.025ZM330.856 137.804L330.306 135.054L328.344 135.446L328.894 138.196L330.856 137.804ZM328.774 134.415C327.126 135.502 325.436 136.302 323.703 136.822L324.277 138.738C326.211 138.158 328.077 137.271 329.876 136.085L328.774 134.415ZM323.715 136.818C321.968 137.318 320.545 137.55 319.425 137.55V139.55C320.798 139.55 322.419 139.269 324.265 138.742L323.715 136.818ZM319.425 137.55H316.95V139.55H319.425V137.55ZM316.95 137.55C314.672 137.55 312.946 136.871 311.662 135.588L310.248 137.002C311.971 138.725 314.241 139.55 316.95 139.55V137.55ZM311.662 135.588C310.379 134.304 309.7 132.578 309.7 130.3H307.7C307.7 133.009 308.525 135.279 310.248 137.002L311.662 135.588ZM309.7 130.3V117.65H307.7V130.3H309.7ZM309.7 117.65C309.7 115.092 310.411 113.228 311.717 111.922L310.303 110.508C308.529 112.282 307.7 114.708 307.7 117.65H309.7ZM311.717 111.922C313.064 110.575 314.95 109.85 317.5 109.85V107.85C314.55 107.85 312.109 108.702 310.303 110.508L311.717 111.922ZM317.5 109.85H328.775V107.85H317.5V109.85ZM329.775 108.85V99.5H327.775V108.85H329.775ZM328.775 100.5H338.4V98.5H328.775V100.5ZM337.4 99.5V138H339.4V99.5H337.4ZM338.4 137H329.875V139H338.4V137ZM322.175 131.575C324.24 131.575 326.539 131.186 329.061 130.433L328.489 128.517C326.097 129.231 323.996 129.575 322.175 129.575V131.575ZM329.775 129.475V116.275H327.775V129.475H329.775ZM328.775 115.275H320.525V117.275H328.775V115.275ZM320.525 115.275C319.638 115.275 318.788 115.498 318.168 116.118C317.548 116.738 317.325 117.588 317.325 118.475H319.325C319.325 117.896 319.469 117.645 319.582 117.532C319.695 117.419 319.946 117.275 320.525 117.275V115.275ZM317.325 118.475V128.65H319.325V118.475H317.325ZM317.325 128.65C317.325 129.447 317.601 130.166 318.168 130.732L319.582 129.318C319.415 129.151 319.325 128.953 319.325 128.65H317.325ZM318.168 130.732C318.734 131.299 319.453 131.575 320.25 131.575V129.575C319.947 129.575 319.749 129.485 319.582 129.318L318.168 130.732ZM320.25 131.575H322.175V129.575H320.25V131.575ZM361.494 109.95H362.494V108.95H361.494V109.95ZM361.494 138V139H362.494V138H361.494ZM351.869 138H350.869V139H351.869V138ZM351.869 117.375H352.869V116.375H351.869V117.375ZM347.744 117.375H346.744V118.375H347.744V117.375ZM347.744 109.95V108.95H346.744V109.95H347.744ZM351.869 98.95V97.95H350.869V98.95H351.869ZM361.494 98.95H362.494V97.95H361.494V98.95ZM361.494 106.65V107.65H362.494V106.65H361.494ZM351.869 106.65H350.869V107.65H351.869V106.65ZM360.494 109.95V138H362.494V109.95H360.494ZM361.494 137H351.869V139H361.494V137ZM352.869 138V117.375H350.869V138H352.869ZM351.869 116.375H347.744V118.375H351.869V116.375ZM348.744 117.375V109.95H346.744V117.375H348.744ZM347.744 110.95H361.494V108.95H347.744V110.95ZM351.869 99.95H361.494V97.95H351.869V99.95ZM360.494 98.95V106.65H362.494V98.95H360.494ZM361.494 105.65H351.869V107.65H361.494V105.65ZM352.869 106.65V98.95H350.869V106.65H352.869ZM390.661 129.75L390.947 130.708L391.661 130.495V129.75H390.661ZM390.661 126.45H391.661V125.45H390.661V126.45ZM381.311 127L382.018 127.707L382.018 127.707L381.311 127ZM381.311 130.3L380.604 131.007L380.604 131.007L381.311 130.3ZM373.886 109.4L373.777 108.406L372.886 108.503V109.4H373.886ZM398.031 110.555L397.324 111.262L397.324 111.262L398.031 110.555ZM400.286 138V139H401.286V138H400.286ZM391.761 138L390.78 138.196L390.941 139H391.761V138ZM391.211 135.25L392.191 135.054L391.9 133.597L390.66 134.415L391.211 135.25ZM385.876 137.78L386.15 138.742L386.163 138.738L385.876 137.78ZM373.391 136.295L372.684 137.002L372.684 137.002L373.391 136.295ZM373.391 121.83L374.098 122.537L374.098 122.537L373.391 121.83ZM390.661 119.575V120.575H391.661V119.575H390.661ZM390.111 116L389.404 116.707L389.404 116.707L390.111 116ZM380.816 115.78L380.74 114.783L380.739 114.783L380.816 115.78ZM373.886 116.275H372.886V117.339L373.948 117.273L373.886 116.275ZM384.061 131.85C386.126 131.85 388.425 131.461 390.947 130.708L390.375 128.792C387.983 129.506 385.882 129.85 384.061 129.85V131.85ZM391.661 129.75V126.45H389.661V129.75H391.661ZM390.661 125.45H382.686V127.45H390.661V125.45ZM382.686 125.45C381.888 125.45 381.17 125.726 380.604 126.293L382.018 127.707C382.185 127.54 382.383 127.45 382.686 127.45V125.45ZM380.604 126.293C380.037 126.859 379.761 127.578 379.761 128.375H381.761C381.761 128.072 381.851 127.874 382.018 127.707L380.604 126.293ZM379.761 128.375V128.925H381.761V128.375H379.761ZM379.761 128.925C379.761 129.722 380.037 130.441 380.604 131.007L382.018 129.593C381.851 129.426 381.761 129.228 381.761 128.925H379.761ZM380.604 131.007C381.17 131.574 381.888 131.85 382.686 131.85V129.85C382.383 129.85 382.185 129.76 382.018 129.593L380.604 131.007ZM382.686 131.85H384.061V129.85H382.686V131.85ZM373.994 110.394C380.677 109.664 386.69 109.3 392.036 109.3V107.3C386.602 107.3 380.515 107.67 373.777 108.406L373.994 110.394ZM392.036 109.3C394.313 109.3 396.04 109.979 397.324 111.262L398.738 109.848C397.015 108.125 394.745 107.3 392.036 107.3V109.3ZM397.324 111.262C398.607 112.546 399.286 114.272 399.286 116.55H401.286C401.286 113.841 400.461 111.571 398.738 109.848L397.324 111.262ZM399.286 116.55V138H401.286V116.55H399.286ZM400.286 137H391.761V139H400.286V137ZM392.741 137.804L392.191 135.054L390.23 135.446L390.78 138.196L392.741 137.804ZM390.66 134.415C389.012 135.502 387.321 136.302 385.588 136.822L386.163 138.738C388.097 138.158 389.963 137.271 391.761 136.085L390.66 134.415ZM385.601 136.818C383.854 137.318 382.431 137.55 381.311 137.55V139.55C382.684 139.55 384.304 139.269 386.15 138.742L385.601 136.818ZM381.311 137.55H379.386V139.55H381.311V137.55ZM379.386 137.55C377.108 137.55 375.381 136.871 374.098 135.588L372.684 137.002C374.407 138.725 376.677 139.55 379.386 139.55V137.55ZM374.098 135.588C372.814 134.304 372.136 132.578 372.136 130.3H370.136C370.136 133.009 370.961 135.279 372.684 137.002L374.098 135.588ZM372.136 130.3V127.825H370.136V130.3H372.136ZM372.136 127.825C372.136 125.547 372.814 123.821 374.098 122.537L372.684 121.123C370.961 122.846 370.136 125.116 370.136 127.825H372.136ZM374.098 122.537C375.381 121.254 377.108 120.575 379.386 120.575V118.575C376.677 118.575 374.407 119.4 372.684 121.123L374.098 122.537ZM379.386 120.575H390.661V118.575H379.386V120.575ZM391.661 119.575V117.375H389.661V119.575H391.661ZM391.661 117.375C391.661 116.578 391.384 115.859 390.818 115.293L389.404 116.707C389.571 116.874 389.661 117.072 389.661 117.375H391.661ZM390.818 115.293C390.251 114.726 389.533 114.45 388.736 114.45V116.45C389.038 116.45 389.237 116.54 389.404 116.707L390.818 115.293ZM388.736 114.45C386.322 114.45 383.657 114.561 380.74 114.783L380.891 116.777C383.768 116.559 386.382 116.45 388.736 116.45V114.45ZM380.739 114.783C377.881 115.003 375.577 115.167 373.823 115.277L373.948 117.273C375.715 117.163 378.03 116.997 380.892 116.777L380.739 114.783ZM374.886 116.275V109.4H372.886V116.275H374.886Z" fill="#0076A9"/>
</g>
<defs>
<filter id="filter0_d" x="0" y="16" width="155" height="155" filterUnits="userSpaceOnUse" color-interpolation-filters="sRGB">
<feFlood flood-opacity="0" result="BackgroundImageFix"/>
<feColorMatrix in="SourceAlpha" type="matrix" values="0 0 0 0 0 0 0 0 0 0 0 0 0 0 0 0 0 0 127 0"/>
<feOffset dy="4"/>
<feGaussianBlur stdDeviation="2"/>
<feColorMatrix type="matrix" values="0 0 0 0 0 0 0 0 0 0 0 0 0 0 0 0 0 0 0.25 0"/>
<feBlend mode="normal" in2="BackgroundImageFix" result="effect1_dropShadow"/>
<feBlend mode="normal" in="SourceGraphic" in2="effect1_dropShadow" result="shape"/>
</filter>
<filter id="filter1_di" x="149.088" y="17.792" width="270.63" height="90.32" filterUnits="userSpaceOnUse" color-interpolation-filters="sRGB">
<feFlood flood-opacity="0" result="BackgroundImageFix"/>
<feColorMatrix in="SourceAlpha" type="matrix" values="0 0 0 0 0 0 0 0 0 0 0 0 0 0 0 0 0 0 127 0"/>
<feOffset dy="4"/>
<feGaussianBlur stdDeviation="2"/>
<feColorMatrix type="matrix" values="0 0 0 0 0 0 0 0 0 0 0 0 0 0 0 0 0 0 0.25 0"/>
<feBlend mode="normal" in2="BackgroundImageFix" result="effect1_dropShadow"/>
<feBlend mode="normal" in="SourceGraphic" in2="effect1_dropShadow" result="shape"/>
<feColorMatrix in="SourceAlpha" type="matrix" values="0 0 0 0 0 0 0 0 0 0 0 0 0 0 0 0 0 0 127 0" result="hardAlpha"/>
<feOffset dy="4"/>
<feGaussianBlur stdDeviation="2"/>
<feComposite in2="hardAlpha" operator="arithmetic" k2="-1" k3="1"/>
<feColorMatrix type="matrix" values="0 0 0 0 0 0 0 0 0 0 0 0 0 0 0 0 0 0 0.25 0"/>
<feBlend mode="normal" in2="shape" result="effect2_innerShadow"/>
</filter>
<filter id="filter2_di" x="211.3" y="97.95" width="193.986" height="49.6" filterUnits="userSpaceOnUse" color-interpolation-filters="sRGB">
<feFlood flood-opacity="0" result="BackgroundImageFix"/>
<feColorMatrix in="SourceAlpha" type="matrix" values="0 0 0 0 0 0 0 0 0 0 0 0 0 0 0 0 0 0 127 0"/>
<feOffset dy="4"/>
<feGaussianBlur stdDeviation="2"/>
<feColorMatrix type="matrix" values="0 0 0 0 0 0 0 0 0 0 0 0 0 0 0 0 0 0 0.25 0"/>
<feBlend mode="normal" in2="BackgroundImageFix" result="effect1_dropShadow"/>
<feBlend mode="normal" in="SourceGraphic" in2="effect1_dropShadow" result="shape"/>
<feColorMatrix in="SourceAlpha" type="matrix" values="0 0 0 0 0 0 0 0 0 0 0 0 0 0 0 0 0 0 127 0" result="hardAlpha"/>
<feOffset dy="4"/>
<feGaussianBlur stdDeviation="2"/>
<feComposite in2="hardAlpha" operator="arithmetic" k2="-1" k3="1"/>
<feColorMatrix type="matrix" values="0 0 0 0 0 0 0 0 0 0 0 0 0 0 0 0 0 0 0.25 0"/>
<feBlend mode="normal" in2="shape" result="effect2_innerShadow"/>
</filter>
<linearGradient id="paint0_linear" x1="135.554" y1="43.6957" x2="28.5" y2="140.098" gradientUnits="userSpaceOnUse">
<stop offset="0.244792" stop-color="#00C0FB"/>
<stop offset="0.791667" stop-color="#06C9D6" stop-opacity="0"/>
</linearGradient>
</defs>
</svg>
