<svg width="466" height="406" viewBox="0 0 466 406" fill="none" xmlns="http://www.w3.org/2000/svg">
<g id="undraw_happy_music_g6wc 1" clip-path="url(#clip0)">
<path id="Vector" d="M466 400.967L132.415 406L0 382.512H206.718L466 400.967Z" fill="#E6E6E6"/>
<path id="Vector_2" d="M384.14 106.813C413.612 106.813 437.503 82.9018 437.503 53.4063C437.503 23.9108 413.612 0 384.14 0C354.669 0 330.778 23.9108 330.778 53.4063C330.778 82.9018 354.669 106.813 384.14 106.813Z" fill="#FF6584"/>
<path id="Vector_3" d="M94.3999 385.304C94.3999 385.304 95.1804 368.935 111.182 370.837L94.3999 385.304Z" fill="#B0B0B0"/>
<path id="Vector_4" d="M89.8786 369.727C94.3016 369.727 97.8872 366.138 97.8872 361.711C97.8872 357.285 94.3016 353.696 89.8786 353.696C85.4556 353.696 81.87 357.285 81.87 361.711C81.87 366.138 85.4556 369.727 89.8786 369.727Z" fill="#48C5B2"/>
<path id="Vector_5" d="M90.8361 375.209H88.5755V391.046H90.8361V375.209Z" fill="#B0B0B0"/>
<path id="Vector_6" d="M358.139 388.1C358.139 388.1 358.919 371.731 374.921 373.634L358.139 388.1Z" fill="#B0B0B0"/>
<path id="Vector_7" d="M353.617 372.523C358.04 372.523 361.626 368.934 361.626 364.508C361.626 360.081 358.04 356.492 353.617 356.492C349.194 356.492 345.609 360.081 345.609 364.508C345.609 368.934 349.194 372.523 353.617 372.523Z" fill="#48C5B2"/>
<path id="Vector_8" d="M354.575 378.005H352.314V393.842H354.575V378.005Z" fill="#B0B0B0"/>
<path id="Vector_9" d="M396.694 390.896C396.694 390.896 397.474 374.527 413.476 376.43L396.694 390.896Z" fill="#B0B0B0"/>
<path id="Vector_10" d="M392.173 375.319C396.596 375.319 400.181 371.73 400.181 367.304C400.181 362.877 396.596 359.289 392.173 359.289C387.749 359.289 384.164 362.877 384.164 367.304C384.164 371.73 387.749 375.319 392.173 375.319Z" fill="#48C5B2"/>
<path id="Vector_11" d="M393.13 380.801H390.869V396.638H393.13V380.801Z" fill="#B0B0B0"/>
<path id="Vector_12" d="M157.541 377.474C157.541 377.474 158.321 361.106 174.323 363.008L157.541 377.474Z" fill="#B0B0B0"/>
<path id="Vector_13" d="M153.019 361.897C157.442 361.897 161.028 358.309 161.028 353.882C161.028 349.456 157.442 345.867 153.019 345.867C148.596 345.867 145.011 349.456 145.011 353.882C145.011 358.309 148.596 361.897 153.019 361.897Z" fill="#48C5B2"/>
<path id="Vector_14" d="M153.977 367.379H151.716V383.217H153.977V367.379Z" fill="#B0B0B0"/>
<path id="Vector_15" d="M38.523 380.271C38.523 380.271 39.3036 363.902 55.305 365.804L38.523 380.271Z" fill="#B0B0B0"/>
<path id="Vector_16" d="M34.0017 364.694C38.4248 364.694 42.0103 361.105 42.0103 356.678C42.0103 352.252 38.4248 348.663 34.0017 348.663C29.5787 348.663 25.9931 352.252 25.9931 356.678C25.9931 361.105 29.5787 364.694 34.0017 364.694Z" fill="#48C5B2"/>
<path id="Vector_17" d="M34.9592 370.176H32.6986V386.013H34.9592V370.176Z" fill="#B0B0B0"/>
<path id="Vector_18" d="M232.155 351.827C280.345 351.827 319.41 312.729 319.41 264.5C319.41 216.271 280.345 177.173 232.155 177.173C183.966 177.173 144.901 216.271 144.901 264.5C144.901 312.729 183.966 351.827 232.155 351.827Z" fill="#0E8EB7"/>
<path id="Vector_19" d="M177.223 271.51C179.39 268.913 182.1 266.825 185.162 265.392C188.224 263.959 191.563 263.216 194.944 263.216C198.324 263.216 201.663 263.959 204.725 265.392C207.787 266.825 210.497 268.913 212.664 271.51C216.372 267.967 218.935 263.394 220.023 258.38C221.11 253.366 220.672 248.141 218.766 243.379C216.859 238.616 213.571 234.534 209.325 231.659C205.079 228.784 200.07 227.248 194.944 227.248C189.817 227.248 184.808 228.784 180.563 231.659C176.317 234.534 173.028 238.616 171.122 243.379C169.215 248.141 168.777 253.366 169.865 258.38C170.952 263.394 173.515 267.967 177.223 271.51Z" fill="white"/>
<path id="Vector_20" d="M246.514 271.51C248.681 268.913 251.391 266.825 254.453 265.392C257.515 263.959 260.854 263.216 264.234 263.216C267.615 263.216 270.954 263.959 274.016 265.392C277.078 266.825 279.788 268.913 281.955 271.51C285.663 267.967 288.226 263.394 289.313 258.38C290.401 253.366 289.963 248.141 288.056 243.379C286.15 238.616 282.861 234.534 278.615 231.659C274.37 228.784 269.361 227.248 264.234 227.248C259.108 227.248 254.099 228.784 249.853 231.659C245.607 234.534 242.319 238.616 240.412 243.379C238.506 248.141 238.068 253.366 239.155 258.38C240.243 263.394 242.806 267.967 246.514 271.51Z" fill="white"/>
<path id="Vector_21" d="M186.189 253.021C191.065 253.021 195.017 249.066 195.017 244.186C195.017 239.307 191.065 235.351 186.189 235.351C181.314 235.351 177.361 239.307 177.361 244.186C177.361 249.066 181.314 253.021 186.189 253.021Z" fill="#3F3D56"/>
<path id="Vector_22" d="M255.477 253.021C260.353 253.021 264.305 249.066 264.305 244.186C264.305 239.307 260.353 235.351 255.477 235.351C250.602 235.351 246.649 239.307 246.649 244.186C246.649 249.066 250.602 253.021 255.477 253.021Z" fill="#3F3D56"/>
<path id="Vector_23" d="M169.281 296.605C174.95 296.605 179.546 292.006 179.546 286.332C179.546 280.658 174.95 276.058 169.281 276.058C163.611 276.058 159.015 280.658 159.015 286.332C159.015 292.006 163.611 296.605 169.281 296.605Z" fill="#FF6584"/>
<path id="Vector_24" d="M287.331 296.605C293 296.605 297.596 292.006 297.596 286.332C297.596 280.658 293 276.058 287.331 276.058C281.662 276.058 277.066 280.658 277.066 286.332C277.066 292.006 281.662 296.605 287.331 296.605Z" fill="#FF6584"/>
<path id="Vector_25" d="M228.306 265.784L220.607 299.174L233.438 286.332L228.306 265.784Z" fill="#FF6584"/>
<path id="Vector_26" d="M267.865 394.206L259.124 386.864L259.328 394.206H256.613L256.396 386.442L244.595 394.206H239.654L256.308 383.25L255.663 360.246L255.181 342.873L257.889 342.798L258.378 360.246L259.022 383.23L272.086 394.206H267.865Z" fill="#B0B0B0"/>
<path id="Vector_27" d="M226.801 394.206L218.06 386.864L218.264 394.206H215.556L215.339 386.442L203.537 394.206H198.597L215.244 383.25L214.599 360.246L214.117 342.873L216.832 342.798L217.32 360.246L217.958 383.23L231.022 394.206H226.801Z" fill="#B0B0B0"/>
<path id="Vector_28" d="M233.438 170.752C231.044 170.752 228.932 172.614 227.52 175.472C226.276 171.173 223.661 168.184 220.607 168.184C220.399 168.205 220.193 168.239 219.991 168.287C218.817 163.698 216.089 160.479 212.908 160.479C208.656 160.479 205.209 166.228 205.209 173.321C205.209 180.413 208.656 186.163 212.908 186.163C213.115 186.142 213.321 186.108 213.524 186.059C214.698 190.649 217.426 193.868 220.607 193.868C223.001 193.868 225.113 192.007 226.525 189.148C227.77 193.447 230.385 196.437 233.438 196.437C237.69 196.437 241.137 190.687 241.137 183.594C241.137 176.502 237.69 170.752 233.438 170.752Z" fill="#3F3D56"/>
<path id="Vector_29" d="M150.255 297.593C146.885 297.593 143.548 296.929 140.435 295.638C137.321 294.347 134.492 292.455 132.109 290.07C129.726 287.685 127.836 284.854 126.546 281.738C125.256 278.621 124.592 275.281 124.592 271.909V259.066C124.592 252.254 127.296 245.722 132.109 240.905C136.922 236.088 143.449 233.382 150.255 233.382V297.593Z" fill="#48C5B2"/>
<path id="Vector_30" d="M314.055 233.382C317.425 233.382 320.762 234.046 323.876 235.337C326.99 236.628 329.819 238.52 332.202 240.905C334.585 243.29 336.475 246.121 337.765 249.237C339.054 252.354 339.718 255.693 339.718 259.066V271.909C339.718 275.281 339.054 278.621 337.765 281.737C336.475 284.854 334.585 287.685 332.202 290.07C329.819 292.455 326.99 294.347 323.876 295.638C320.762 296.928 317.425 297.593 314.055 297.593V233.382H314.055Z" fill="#48C5B2"/>
<path id="Vector_31" d="M327.503 261.084H323.431C323.431 209.403 281.42 167.356 229.78 167.356C178.141 167.356 136.129 209.403 136.129 261.084H132.057C132.057 207.156 175.896 163.281 229.78 163.281C283.665 163.281 327.503 207.156 327.503 261.084Z" fill="#48C5B2"/>
<path id="tune-6" d="M90.0468 182.542L90.0475 182.541L88.1346 181.743L80.0633 178.328L77.1702 177.104L76.9481 177.665L73.0618 187.486L83.9992 192.119L84.0566 192.171L83.3196 193.911C83.2187 194.07 83.1326 194.238 83.0624 194.413C82.5461 195.717 83.5213 197.015 84.4431 197.38C85.365 197.746 86.5309 196.984 87.0471 195.68C87.5564 194.393 87.0587 192.758 86.1604 192.363L86.1612 192.361L84.2482 191.564L77.7043 189.018L81.4434 179.57L80.8892 179.35L77.1488 188.802L76.3396 188.487L80.0946 178.998L80.1935 179.04L87.8856 182.299L87.943 182.351L87.206 184.09C87.1051 184.249 87.019 184.417 86.9488 184.592C86.4325 185.897 87.4076 187.194 88.3295 187.56C89.2513 187.925 90.4172 187.164 90.9335 185.859C91.4428 184.572 90.9451 182.937 90.0468 182.542Z" fill="white"/>
<path id="tune-5" d="M127.903 206.652C123.933 204.38 124.727 199.395 124.727 199.395C124.627 196.156 121.954 196.614 121.954 196.614L120.981 196.836C120.529 196.627 120.031 196.534 119.534 196.569L118.053 196.818C121.424 197.611 121.147 200.433 121.147 200.433L121.619 203.732L112.787 200.166L113.801 197.773C113.941 197.552 114.061 197.319 114.158 197.076C114.876 195.264 113.521 193.462 112.241 192.954C110.961 192.447 109.341 193.504 108.624 195.316C107.917 197.104 108.608 199.374 109.856 199.923L109.855 199.925L112.512 201.033L112.531 200.97L127.903 206.652ZM123.418 200.855L123.701 204.013C122.701 202.609 122.232 200.895 122.376 199.176C122.352 198.565 122.146 197.975 121.784 197.482C122.341 197.839 122.788 198.343 123.076 198.938C123.364 199.533 123.483 200.196 123.418 200.855V200.855Z" fill="white"/>
<path id="tune-4" d="M60.532 159.943L60.5331 159.941L57.8762 158.834L46.772 154.514L49.5746 152.018C50.1229 151.287 50.9325 150.796 51.8342 150.648C52.7359 150.5 53.6598 150.707 54.4126 151.225L53.5429 149.931C53.5429 149.931 51.9079 147.765 49.6192 150.057C49.6192 150.057 46.7874 154.235 42.3394 153.17L57.5304 159.605L57.6101 159.677L56.5865 162.093C56.4463 162.314 56.3267 162.547 56.2293 162.79C55.5122 164.602 56.8666 166.405 58.1469 166.912C59.4273 167.42 61.0465 166.362 61.7637 164.55C62.4709 162.763 61.7797 160.492 60.532 159.943Z" fill="white"/>
<path id="tune-3" d="M101.185 145.804L100.161 148.22C100.021 148.441 99.9012 148.674 99.8038 148.917C99.0867 150.729 100.441 152.531 101.721 153.039C103.002 153.546 104.621 152.489 105.338 150.677C106.045 148.889 105.354 146.619 104.107 146.07L104.108 146.068L101.451 144.96L92.3619 141.424L97.555 128.301L96.7853 127.996L91.5902 141.124L90.4664 140.687L95.6817 127.508L95.8191 127.566L106.503 132.092L106.582 132.164L105.559 134.58C105.419 134.801 105.299 135.034 105.202 135.277C104.484 137.089 105.839 138.891 107.119 139.399C108.399 139.906 110.019 138.849 110.736 137.037C111.443 135.249 110.752 132.979 109.504 132.43L109.505 132.428L106.848 131.32L95.9908 126.727L95.9904 126.727L95.6382 126.578L91.62 124.878L85.9139 139.297L101.105 145.732L101.185 145.804Z" fill="white"/>
<path id="tune-2" d="M53.044 71.957L53.0458 71.9532L48.4722 70.047L29.357 62.6101L34.1815 58.3143C34.1815 58.3143 37.3906 53.8579 42.5098 56.9489L41.0127 54.7219C41.0127 54.7219 38.1981 50.9925 34.2583 54.9383C34.2583 54.9383 29.3835 62.1306 21.7264 60.2973L47.8769 71.3745L48.0141 71.499L46.252 75.6575C46.0107 76.0378 45.8049 76.4396 45.6371 76.8577C44.4027 79.9771 46.7341 83.08 48.9381 83.9536C51.1422 84.8273 53.9297 83.0067 55.1642 79.8873C56.3817 76.8103 55.1918 72.9015 53.044 71.957Z" fill="white"/>
<path id="tune-1" d="M67.08 134.427C57.5871 128.995 59.4867 117.075 59.4867 117.075C59.2479 109.331 52.8551 110.427 52.8551 110.427L50.5285 110.959C49.4477 110.457 48.2576 110.236 47.0689 110.318L43.5297 110.914C51.5886 112.81 50.9265 119.557 50.9265 119.557L52.0556 127.446L30.939 118.92L33.3635 113.199C33.6986 112.67 33.9845 112.112 34.2175 111.532C35.9321 107.199 32.6939 102.89 29.6327 101.676C26.5714 100.463 22.6999 102.991 20.9854 107.324C19.2942 111.597 20.947 117.027 23.93 118.338L23.9275 118.343L30.2799 120.991L30.3272 120.841L67.08 134.427ZM56.3567 120.566L57.0361 128.143C53.0491 122.846 53.864 116.553 53.864 116.553C53.8079 115.091 53.3152 113.68 52.4498 112.502C57.0298 115.245 56.3566 120.566 56.3566 120.566H56.3567Z" fill="white"/>
</g>
<defs>
<clipPath id="clip0">
<rect width="466" height="406" fill="white"/>
</clipPath>
</defs>
</svg>
