<svg width="155" height="131" viewBox="0 0 155 131" fill="none" xmlns="http://www.w3.org/2000/svg">
<path d="M38.75 33.2083L90.4167 0.916668V130.083L38.75 97.7917V33.2083ZM0 97.7917H25.8333V33.2083H0V97.7917ZM130.872 12.1283L121.204 21.7965C133.132 33.3117 140.469 48.6438 140.469 65.5C140.469 82.3563 133.139 97.6883 121.204 109.197L130.878 118.872C145.765 104.967 155 86.2248 155 65.5C155 44.7752 145.765 26.0396 130.872 12.1283ZM127.714 65.5C127.714 52.0408 121.804 39.8798 112.317 30.6831L102.61 40.39C109.139 47.1648 113.182 55.8965 113.182 65.5C113.182 75.11 109.159 83.8481 102.629 90.6294L112.336 100.336C121.817 91.1396 127.714 78.9656 127.714 65.5V65.5Z" fill="#fff"/>
</svg>
